<svg xmlns="http://www.w3.org/2000/svg" id="Layer_1" viewBox="0 0 59.27 63.34"><path fill="#004837" d="M40.29 45.42c-.37-.17-.73-.29-1.12-.34-.65-.08-1.16-.59-1.29-1.23-.09-.43-.28-.68-.83-1.03a4.8 4.8 0 0 1-1.71-1.92c-.09-.19-.22-.34-.44-.41-.79-.45.25-1.12-.01-1.23-.16-.07-.32-.13-.46-.22-.52-.35-1.34-.91-1.05-1.42 1.6-2.77-.35-2.03.08-4.02a1.5 1.5 0 0 0-.33-1.3c-1.48-1.65-2.41-1.79-4.29-1.14-.85.3-1.75-.34-1.73-1.23.01-.45-.17-.67-1.56-.19-.12.04-.24.1-.36.16-.84.41-1.19-1.47-1.98-.91a.46.46 0 0 1-.61-.05c-1.56-1.68-1.41 2.46-3.6 2.15-.09-.01-1.73-.29-2.22.59-.19.42-.8-.05-.93.3-1.51 3.6 1.15 1.84.62 2.84-.24.45-.68.77-1.19.88-1.77.39-.6.76-1.7 1.33-.15.08-.31.11-.47.13-1.15.13-1.16 2.02-1.55 3.28-.14.45-.01.93.29 1.29.81.96-1.66 2.17-1.08.62.03-.08.01-.16-.03-.22-.12-.16-.33-.37-.34-.1-.1.45-.88-.21-1.07.2-.38.99-.71.34-1.37.51-.32.11-.28.35-.21.59.09.32-.15.62-.48.64-.68.05-.95.86-1.91.47-.03-.01-.06-.03-.09-.04-.32-.15-.65-.28-.99-.38-4.84-1.37.31 5.27-1.02 8.59a1.5 1.5 0 0 1-.7.75c-6.1 3.15 1.05 2.09-1.4 6.53-.15.28-.24.59-.22.9 0 .1.02.2.05.3.06.17.3.18.38.02.23-.46.43-1.09 1.22-.32.23.22.59.16.91 0s.55-.41.71-.72c1.13-2.17 4.38-1.37 6.41-1.25 3.41.11 6.35 2.08 9.03 2.48.69.15.62 2.03.9.65.06-.31.11-.81.5-.55.85 1.1 1.15-1.02 1.72-.19.08.13.26.29.41.41.13.11.3.15.46.12 1.32-.24.66 1.22 2.13-.02.1-.08.19-.17.28-.27 1.3-1.46 1 2.77 2.74.95.44-.34.68.15 1.11-.05 1.58-1.11 2.08.21 2.86.89.25.22.63.04.64-.29.01-1.26-.82-2.64.54-3.76.75-.65.76-1.74 1.8-1.57.25.04.5.03.74-.07 1-.42 2.09.22 1.33-1.83-.11-.28-.16-.58-.17-.88-.04-1.98-.89-.58-.38-2.27.05-.16 0-.34-.12-.46-.36-.35-1.05-1.02-.95-1.56.03-.16.11-.31.19-.42 1.28-1.74 3.75 1.17 4.62-.84.21-.49.58-.9 1.01-1.23 1-.78-1.43-.97-1.23-1.9.07-.32-.12-.64-.42-.77Z"/><path fill="#ff9916" d="M23.98 27.99a2.082 2.082 0 0 1-2-2.66l6.78-23.81A2.08 2.08 0 0 1 31.34.09c1.11.32 1.75 1.47 1.43 2.58l-6.79 23.81c-.26.92-1.1 1.51-2.01 1.51ZM31.78 29.82c-.46 0-.91-.15-1.3-.45-.9-.72-1.05-2.03-.33-2.93L45.63 7c.72-.9 2.03-1.05 2.93-.33s1.05 2.03.33 2.93L33.41 29.04c-.41.52-1.02.79-1.63.79ZM36.77 35.62a2.09 2.09 0 0 1-1.01-3.92l20.41-11.29a2.09 2.09 0 1 1 2.02 3.66L37.78 35.36c-.32.18-.67.26-1.01.26"/><path fill="#ff9916" d="M25.84 54.09c-3.04 0-5.88-1.02-8.43-3.03-2.21-1.74-4.09-4.13-5.61-7.11-1.25-2.45-2.6-4.41-4.01-5.81-1.39-1.38-2.87-2.25-4.39-2.56a2.094 2.094 0 0 1-1.62-2.47 2.094 2.094 0 0 1 2.47-1.62c2.33.49 4.51 1.73 6.48 3.69 1.73 1.72 3.34 4.03 4.79 6.88 3.47 6.84 7.95 7.86 10.31 7.86 5.04 0 7.55-3.41 9.57-6.15.75-1.01 1.4-1.89 2.13-2.55.87-.79 2.72-1.82 9.27-2.81 3.42-.52 6.5-.78 6.63-.79 1.15-.1 2.16.76 2.25 1.91.1 1.15-.76 2.16-1.91 2.25-.03 0-3.04.26-6.29.75-6.04.91-7.12 1.77-7.16 1.8-.41.37-.97 1.13-1.56 1.92-1.13 1.53-2.53 3.43-4.55 5-2.43 1.89-5.25 2.85-8.39 2.85Z"/></svg>
