<?xml version="1.0" encoding="UTF-8"?><svg id="Layer_2" xmlns="http://www.w3.org/2000/svg" viewBox="0 0 100 100"><g id="Layer_3"><rect width="100" height="100" fill="none"/></g><path d="M66.93,71.7c-.59-.27-1.15-.46-1.77-.54-1.03-.13-1.83-.93-2.04-1.95-.14-.69-.45-1.08-1.31-1.62-1.17-.74-2.08-1.8-2.7-3.04-.15-.29-.35-.53-.7-.65-1.24-.7.4-1.76-.02-1.94-.25-.11-.5-.2-.73-.35-.82-.56-2.12-1.44-1.66-2.24,2.52-4.38-.56-3.21.12-6.34.16-.73-.03-1.49-.52-2.05-2.34-2.61-3.81-2.83-6.77-1.8-1.34.47-2.77-.53-2.72-1.94.02-.72-.27-1.05-2.47-.3-.2.07-.38.16-.57.25-1.32.65-1.88-2.33-3.13-1.44-.3.22-.72.19-.97-.08-2.46-2.66-2.22,3.88-5.68,3.4-.14-.02-2.74-.46-3.51.94-.3.67-1.27-.09-1.48.47-2.38,5.68,1.82,2.91.98,4.49-.38.72-1.08,1.22-1.88,1.39-2.79.61-.95,1.2-2.68,2.09-.23.12-.48.17-.74.2-1.82.2-1.82,3.19-2.45,5.18-.22.71-.02,1.47.46,2.04,1.27,1.52-2.61,3.43-1.7.98.04-.12.02-.25-.05-.35-.19-.26-.51-.58-.53-.16-.16.72-1.38-.32-1.7.32-.61,1.57-1.12.53-2.16.81-.51.18-.44.55-.34.94.13.5-.24.98-.76,1.01-1.07.08-1.51,1.36-3.01.74-.04-.02-.1-.04-.15-.07-.5-.24-1.02-.44-1.56-.6-7.64-2.17.49,8.33-1.61,13.57-.21.51-.61.92-1.1,1.18-9.62,4.97,1.66,3.31-2.21,10.31-.24.43-.38.93-.35,1.42,0,.16.03.32.08.47.09.27.47.28.6.03.36-.72.68-1.72,1.92-.5.36.34.93.25,1.43,0s.87-.65,1.12-1.13c1.79-3.42,6.92-2.16,10.12-1.97,5.38.17,10.03,3.29,14.25,3.91,1.08.24.99,3.21,1.42,1.02.1-.49.17-1.29.78-.86,1.34,1.73,1.81-1.6,2.71-.29.13.2.41.46.64.65.2.17.47.24.73.19,2.08-.38,1.03,1.93,3.35-.03.15-.13.3-.27.44-.42,2.05-2.31,1.57,4.37,4.32,1.5.7-.53,1.08.23,1.75-.08,2.49-1.75,3.29.33,4.51,1.41.39.34,1,.06,1-.45.02-1.99-1.3-4.17.86-5.94,1.19-1.03,1.2-2.75,2.84-2.48.39.06.8.05,1.16-.11,1.58-.66,3.3.35,2.09-2.88-.17-.44-.25-.91-.26-1.39-.07-3.13-1.41-.92-.6-3.58.08-.26,0-.54-.18-.73-.56-.55-1.65-1.61-1.5-2.46.04-.25.18-.49.3-.66,2.01-2.75,5.91,1.84,7.29-1.32.34-.78.92-1.42,1.59-1.94,1.58-1.23-2.25-1.53-1.95-3,.1-.5-.19-1-.66-1.21Z" fill="#004837"/><path d="M41.17,44.19c-.3,0-.6-.04-.91-.13-1.75-.5-2.76-2.32-2.26-4.07L48.72,2.39c.5-1.75,2.32-2.76,4.07-2.26,1.75.5,2.76,2.32,2.26,4.07l-10.73,37.6c-.41,1.45-1.73,2.39-3.17,2.39Z" fill="#ff9916"/><path d="M53.49,47.08c-.72,0-1.44-.23-2.05-.72-1.42-1.13-1.66-3.21-.53-4.63l24.44-30.69c1.13-1.42,3.21-1.66,4.63-.53,1.42,1.13,1.66,3.21.53,4.63l-24.44,30.69c-.65.82-1.61,1.24-2.58,1.24Z" fill="#ff9916"/><path d="M61.37,56.24c-1.16,0-2.28-.61-2.89-1.7-.88-1.59-.3-3.6,1.29-4.48l32.21-17.83c1.59-.88,3.6-.3,4.48,1.29.88,1.59.3,3.6-1.29,4.48l-32.21,17.83c-.51.28-1.05.41-1.59.41Z" fill="#ff9916"/><path d="M44.12,85.39c-4.8,0-9.28-1.61-13.31-4.78-3.48-2.74-6.46-6.52-8.85-11.22-1.97-3.87-4.1-6.96-6.32-9.17-2.2-2.18-4.53-3.54-6.93-4.05-1.78-.37-2.92-2.12-2.55-3.9.37-1.78,2.12-2.92,3.9-2.55,3.67.77,7.11,2.73,10.23,5.82,2.73,2.71,5.27,6.36,7.55,10.86,5.49,10.79,12.56,12.4,16.28,12.4,7.96,0,11.93-5.38,15.12-9.7,1.18-1.6,2.2-2.98,3.36-4.02,1.38-1.24,4.29-2.87,14.63-4.44,5.39-.82,10.26-1.23,10.46-1.25,1.82-.15,3.41,1.2,3.56,3.01.15,1.81-1.2,3.41-3.01,3.56-.05,0-4.8.41-9.93,1.18-9.54,1.44-11.24,2.79-11.31,2.84-.65.59-1.53,1.78-2.46,3.04-1.78,2.42-4,5.42-7.18,7.89-3.84,2.98-8.29,4.49-13.24,4.49Z" fill="#ff9916"/></svg>