<svg xmlns="http://www.w3.org/2000/svg" width="129" height="48" fill="none" viewBox="0 0 129 48"><g clip-path="url(#clip0_2085_554)"><path fill="#F2E9DE" d="M52.275 28.598v-5.065h-2.31v-2.169h7.11v2.169h-2.337v5.065zM61.136 28.748q-.84-.001-1.603-.26a3.3 3.3 0 0 1-1.317-.825c-.37-.374-.622-.86-.764-1.456h2.422q.139.166.314.282.176.116.406.178.232.062.511.062.419 0 .679-.116a.9.9 0 0 0 .385-.295.7.7 0 0 0 .14-.343h-2.226v-1.908h2.197a.8.8 0 0 0-.189-.364 1.2 1.2 0 0 0-.392-.29 1.34 1.34 0 0 0-.581-.115q-.28 0-.524.082-.243.084-.421.22a.9.9 0 0 0-.258.302h-2.463a2.9 2.9 0 0 1 .72-1.456q.554-.59 1.343-.894a4.7 4.7 0 0 1 1.685-.302q1.092.001 1.877.44.784.437 1.204 1.277.419.838.42 2.032c0 .795-.139 1.459-.42 2.02A2.96 2.96 0 0 1 63.07 28.3q-.791.446-1.94.447zM65.7 31.358v-9.994h2.296l.126.795q.504-.562 1.1-.748a4.1 4.1 0 0 1 1.224-.186q.993 0 1.693.5a3.2 3.2 0 0 1 1.072 1.353q.372.851.372 1.908t-.372 1.9a3 3 0 0 1-1.12 1.333q-.748.487-1.898.487-.492 0-.875-.11a2.7 2.7 0 0 1-.666-.282 4 4 0 0 1-.476-.335v3.376h-2.478zm4.03-4.861q.562 0 .868-.233c.204-.155.349-.348.426-.575a2 2 0 0 0 .119-.659 2.1 2.1 0 0 0-.14-.74 1.36 1.36 0 0 0-.454-.613q-.314-.24-.86-.24-.504 0-.839.227a1.46 1.46 0 0 0-.503.576 1.69 1.69 0 0 0-.008 1.454q.163.35.504.575.344.227.888.228M74.561 28.598v-7.234h2.479v2.032h.937q.602 0 1.149.11.546.11.965.393a2 2 0 0 1 .666.77q.245.487.246 1.241 0 .756-.295 1.27-.293.515-.777.832a3.3 3.3 0 0 1-1.076.452q-.596.136-1.211.137h-3.08zm2.479-2.127h.686q.238.001.393-.034a.9.9 0 0 0 .258-.095.35.35 0 0 0 .147-.158.5.5 0 0 0 .041-.22q.001-.135-.049-.24a.45.45 0 0 0-.14-.17.6.6 0 0 0-.229-.103 1.4 1.4 0 0 0-.336-.034h-.769v1.056zm4.77 2.127v-7.234h2.464v7.234zM87.37 28.598v-5.065h-2.312v-2.169h7.11v2.169h-2.336v5.065zM96.537 28.707q-1.092 0-1.967-.427a3.3 3.3 0 0 1-1.392-1.257q-.519-.83-.519-2.024c0-.795.176-1.502.524-2.065a3.45 3.45 0 0 1 1.392-1.283 4.2 4.2 0 0 1 1.918-.44c.7 0 1.366.15 1.939.453q.86.452 1.37 1.303.513.851.512 2.073c0 .816-.163 1.457-.49 2.004q-.491.824-1.343 1.242-.854.417-1.947.418zm-.041-2.252q.545.001.847-.22.301-.22.425-.55.128-.329.127-.657 0-.33-.126-.695a1.35 1.35 0 0 0-.427-.612q-.3-.248-.846-.248c-.364 0-.638.083-.847.248q-.314.248-.442.604a2.1 2.1 0 0 0-.126.7q0 .34.126.674c.086.22.23.4.442.542q.315.212.847.212zM101.352 31.358v-9.994h2.295l.127.795q.503-.562 1.099-.748a4.1 4.1 0 0 1 1.224-.186q.995 0 1.694.5.7.5 1.071 1.353.372.851.372 1.908t-.372 1.9a3 3 0 0 1-1.12 1.333q-.747.487-1.898.487-.492 0-.875-.11a2.7 2.7 0 0 1-.666-.282 4 4 0 0 1-.475-.335v3.376h-2.479zm4.033-4.861q.561 0 .867-.233c.204-.155.349-.348.426-.575a2 2 0 0 0 .119-.659 2.1 2.1 0 0 0-.14-.74 1.35 1.35 0 0 0-.454-.613q-.314-.24-.86-.24-.504 0-.839.227a1.46 1.46 0 0 0-.503.576 1.69 1.69 0 0 0-.008 1.454q.163.35.504.575.343.227.888.228M110.213 28.598v-7.234h2.478v2.032h.937q.602 0 1.149.11t.966.393.666.77q.244.487.245 1.241 0 .756-.294 1.27-.294.515-.777.832a3.3 3.3 0 0 1-1.077.452q-.596.136-1.211.137h-3.08zm2.478-2.127h.687q.237.001.392-.034a.9.9 0 0 0 .258-.095.35.35 0 0 0 .148-.158.54.54 0 0 0 .041-.22q0-.135-.049-.24a.45.45 0 0 0-.14-.17.6.6 0 0 0-.229-.103 1.4 1.4 0 0 0-.336-.034h-.769v1.056zm4.774 2.127v-7.234h2.463v7.234zM120.795 28.598l2.058-2.607a2.05 2.05 0 0 1-1.077-.783 2.2 2.2 0 0 1-.433-1.345c0-.503.087-.932.265-1.257q.268-.487.721-.754.453-.268 1.014-.377a6 6 0 0 1 1.134-.111h3.808v7.234h-2.463v-2.101h-.7l-1.399 2.101h-2.928m3.837-4.064h1.19v-1.112h-1.317q-.182 0-.315.041a.7.7 0 0 0-.224.116.5.5 0 0 0-.135.17.5.5 0 0 0-.041.207q0 .166.085.274a.7.7 0 0 0 .217.178 1 1 0 0 0 .279.095q.146.028.258.029zM49.967 47.734v-13.08h11.45v13.08H58.02V37.722h-4.655v10.012zM63.932 47.734v-13.08h5.574q1.558 0 2.74.435 1.18.434 1.858 1.44.676 1.007.677 2.763 0 1.607-.713 2.67a4.3 4.3 0 0 1-1.934 1.58q-1.219.517-2.76.516H67.33v3.676zm3.395-6.65h2.045q.975 0 1.52-.463.544-.462.545-1.311 0-.776-.477-1.165-.48-.387-1.606-.387h-2.027zM74.011 47.734l5.332-13.08h3.454l5.274 13.08h-3.66l-.659-1.846h-5.424l-.677 1.846zm5.386-4.859h3.284l-1.614-4.49zM89.213 47.734v-13.08h6.606q.845.001 1.578.176.733.177 1.275.581.544.406.855 1.072.31.665.31 1.662 0 .703-.328 1.358t-.912 1.025q.79.37 1.296 1.118.507.747.506 1.931c0 .79-.149 1.508-.449 2.05q-.45.814-1.221 1.276a5.2 5.2 0 0 1-1.756.645q-.986.186-2.055.186zm3.397-7.998h2.383q.395-.001.677-.083a1.15 1.15 0 0 0 .449-.23.959.959 0 0 0 .338-.738q.001-.333-.142-.534a.84.84 0 0 0-.431-.305 2.3 2.3 0 0 0-.741-.1H92.61v1.995zm0 4.913h2.703q.451-.001.77-.083.317-.083.526-.23a.9.9 0 0 0 .3-.361q.093-.214.093-.47 0-.277-.093-.47a.9.9 0 0 0-.292-.333 1.4 1.4 0 0 0-.488-.204 3 3 0 0 0-.684-.064H92.61v2.218zM108.209 47.881q-2.025 0-3.547-.831a5.83 5.83 0 0 1-2.355-2.337q-.836-1.506-.836-3.5c0-1.33.286-2.554.862-3.556a6 6 0 0 1 2.404-2.336q1.539-.832 3.565-.831c1.35 0 2.515.27 3.529.813a5.93 5.93 0 0 1 2.383 2.3q.864 1.487.863 3.52c0 1.355-.284 2.504-.855 3.518a6.1 6.1 0 0 1-2.404 2.383q-1.547.86-3.614.86zm.075-3.157q1.201 0 1.934-.545a3.15 3.15 0 0 0 1.061-1.358 4.3 4.3 0 0 0 .328-1.606q0-.592-.178-1.21a3.8 3.8 0 0 0-.563-1.155 2.9 2.9 0 0 0-1.023-.867q-.638-.333-1.577-.333-1.183 0-1.916.526a3.1 3.1 0 0 0-1.069 1.34 4.4 4.4 0 0 0-.338 1.681q0 .868.349 1.68a3.05 3.05 0 0 0 1.089 1.33q.74.518 1.906.517zM117.744 47.734v-3.196q.881.001 1.399-.065.516-.065.854-.276t.638-.638l-4.936-8.904h3.942l2.721 5.762 2.272-5.762h3.622l-3.64 8.313q-.338.759-.638 1.394-.301.64-.629 1.154-.33.52-.752.914-.421.398-.986.674-.658.315-1.596.47-.937.158-2.271.157zm4.373-14q-1.765 0-2.778-.868-1.015-.869-1.015-2.677h2.665q-.001.758.328 1.035.328.277.816.276.526 0 .836-.276.31-.278.31-1.035h2.664q0 1.182-.459 1.977-.46.795-1.314 1.183-.855.387-2.056.387zM25.12 48a.6.6 0 0 1-.402-.152c-.137-.12-.256-.256-.372-.388-.434-.488-.671-.756-1.373-.263l-.05.028c-.263.122-.485.05-.617.006-.093-.031-.108-.037-.137-.016-.322.33-.62.47-.908.421-.431-.072-.64-.522-.806-.883a2.6 2.6 0 0 0-.204-.387.7.7 0 0 0-.11.106q-.104.117-.243.234c-.55.465-.948.649-1.353.204-.1-.108-.15-.162-.4-.116a.76.76 0 0 1-.615-.157 2 2 0 0 1-.325-.315l-.05.057c-.149.175-.358.415-.673.405a.64.64 0 0 1-.387-.147l-.01.051c-.065.32-.125.625-.43.643-.28.018-.374-.248-.438-.441-.031-.096-.13-.385-.207-.434-.872-.132-1.758-.47-2.695-.824-1.278-.485-2.6-.986-4.035-1.032-.269-.016-.55-.047-.847-.078-1.438-.15-3.067-.32-3.677.842-.157.3-.39.534-.673.679-.413.212-.8.194-1.056-.052a.9.9 0 0 0-.228-.175c-.038.049-.092.16-.126.23l-.044.093a.49.49 0 0 1-.47.265.47.47 0 0 1-.418-.322 1.1 1.1 0 0 1-.054-.31 1.6 1.6 0 0 1 .209-.855c.736-1.332.199-1.833-.323-2.315-.304-.284-.622-.579-.563-1.01.07-.503.65-.986 2.076-1.722a.77.77 0 0 0 .37-.392c.376-.943-.04-2.363-.409-3.617-.387-1.32-.692-2.36-.152-2.907.434-.44 1.19-.29 1.722-.14.256.072.516.17.793.302l.056.026c.284.119.408.036.633-.111.168-.108.374-.245.656-.266a.08.08 0 0 0 .064-.034.05.05 0 0 0 .008-.038c-.116-.429.008-.713.367-.842l.025-.008c.25-.067.46-.02.597.008a1 1 0 0 0 .1.018.7.7 0 0 0 .109-.214l.01-.023c.189-.393.617-.287.8-.243q.015.002.029.008a.37.37 0 0 1 .222-.184c.196-.059.39.04.573.292.1.14.127.315.067.475q-.02.053-.028.09A.66.66 0 0 0 9 31.81c.05-.09.028-.142-.018-.199-.312-.372-.416-.85-.279-1.28.072-.23.127-.491.183-.767.179-.86.383-1.833 1.263-1.931a.7.7 0 0 0 .237-.062c.222-.114.238-.17.261-.269.09-.364.287-.58 1.095-.756.222-.05.413-.163.552-.323-.204-.028-.454-.106-.612-.364-.227-.372-.15-.966.25-1.924.135-.356.512-.31.657-.294l.08.008c.433-.73 1.528-.653 1.983-.584.555.078.833-.348 1.195-1.01.243-.44.472-.859.893-.91.271-.034.54.098.821.402.008.01.026 0 .031-.005.547-.392.963.103 1.185.37.212.252.292.317.351.289.1-.05.202-.099.31-.137.76-.259 1.133-.284 1.384-.101.237.176.23.47.227.565a.61.61 0 0 0 .256.514c.175.13.402.163.606.093 1.593-.555 2.43-.336 3.579.948.302.338.423.81.325 1.262-.106.486.01.664.157.888.323.49.494.937-.253 2.23 0 .076.12.243.692.63.06.042.14.076.225.11l.067.028a.37.37 0 0 1 .217.237c.057.189-.044.346-.127.47a.8.8 0 0 0-.105.196q.005.001.038.026.315.125.486.462a3.3 3.3 0 0 0 1.17 1.317c.415.26.673.506.774.983.075.36.35.628.69.672.299.038.588.124.939.284.37.168.578.563.5.945-.02.095.308.281.468.371.307.176.625.354.65.69q.022.306-.31.563-.468.364-.658.795c-.449 1.03-1.376.761-2.05.563-.697-.204-1.14-.308-1.46.129a.5.5 0 0 0-.088.18c-.042.228.446.708.609.865a.67.67 0 0 1 .183.69c-.075.248-.1.369-.106.43.24.182.39.453.406 1.176q.006.291.103.552c.245.653.279 1.033.113 1.306-.175.292-.498.336-.784.372-.17.023-.346.047-.506.114q-.33.137-.734.072c-.255-.041-.33.039-.562.426-.132.22-.28.467-.525.677-.573.472-.521.963-.39 1.727.05.279.099.568.096.86a.61.61 0 0 1-.366.557.6.6 0 0 1-.253.054zm-1.52-1.72c.573 0 .952.426 1.234.744q.125.145.248.266a5 5 0 0 0-.085-.653c-.124-.715-.277-1.609.614-2.34.157-.136.274-.327.385-.513.217-.361.514-.855 1.231-.736a.74.74 0 0 0 .375-.028c.24-.1.48-.132.673-.158.111-.015.277-.036.315-.067 0 0 .062-.11-.17-.73q-.136-.365-.145-.77c-.012-.57-.108-.638-.154-.671-.328-.23-.303-.524-.114-1.139l-.016-.028c-.335-.33-.898-.883-.795-1.451a1.1 1.1 0 0 1 .204-.452c.607-.831 1.513-.565 2.174-.372.824.24 1.074.246 1.265-.196.17-.387.457-.743.857-1.05q.001 0 .005-.003a3 3 0 0 0-.265-.163c-.36-.204-.902-.511-.785-1.074.015-.08-.04-.173-.13-.214a2.6 2.6 0 0 0-.75-.23 1.48 1.48 0 0 1-1.25-1.187c-.042-.202-.104-.323-.48-.56a3.9 3.9 0 0 1-1.408-1.578c-.049-.096-.092-.127-.144-.145l-.057-.026q-.307-.175-.374-.451c-.055-.225.028-.429.116-.581a1 1 0 0 1-.122-.073c-.441-.299-1.265-.854-.893-1.502.602-1.043.457-1.263.274-1.541-.176-.266-.416-.63-.253-1.387a.78.78 0 0 0-.173-.687c-1.04-1.161-1.603-1.208-2.874-.766a1.31 1.31 0 0 1-1.21-.184 1.25 1.25 0 0 1-.524-1.063v-.008c-.094.002-.3.034-.744.186-.07.023-.142.06-.22.098-.552.271-.932-.18-1.156-.452-.08-.095-.212-.253-.274-.274l-.026.018a.676.676 0 0 1-.893-.085c-.178-.19-.258-.199-.26-.199-.094.021-.292.383-.398.576-.326.594-.816 1.487-1.854 1.345-.509-.077-1.149-.049-1.337.274-.178.367-.555.323-.72.305H12.5c-.38.942-.279 1.185-.256 1.226.029.049.163.06.271.067.17.013.406.031.522.248.121.22 0 .447-.041.521a1.65 1.65 0 0 1-1.113.832c-.56.124-.581.204-.6.276-.056.222-.149.46-.596.692a1.3 1.3 0 0 1-.467.129c-.38.041-.521.586-.692 1.412-.06.28-.118.57-.201.832-.067.216-.01.462.157.66.282.334.266.765-.036 1.124-.281.335-.803.57-1.154.366-.103-.06-.302-.227-.26-.604-.125.01-.246-.02-.352-.046-.026-.006-.06-.016-.087-.021-.233.514-.537.568-.914.485-.086-.018-.158-.033-.233-.026l.013.057a.7.7 0 0 1-.106.589.74.74 0 0 1-.552.307c-.106.008-.199.065-.344.16-.255.166-.64.419-1.244.166l-.085-.04a4.6 4.6 0 0 0-.692-.265c-.782-.222-1.015-.096-1.08-.031-.268.27.042 1.327.316 2.259.397 1.355.85 2.894.387 4.045-.124.31-.364.571-.679.731-1.516.782-1.712 1.12-1.727 1.229-.013.096.183.279.359.441.537.499 1.435 1.335.449 3.114 0 .005-.005.008-.005.013a.6.6 0 0 1 .22-.085c.332-.057.616.178.8.359.028.028.152.015.302-.062.16-.083.299-.225.392-.4.816-1.557 2.845-1.346 4.327-1.19.29.03.563.059.808.074 1.534.05 2.97.594 4.237 1.074.911.346 1.773.674 2.584.793a.73.73 0 0 1 .434.289c.051-.1.129-.191.25-.24.111-.047.287-.067.504.082l.041.029.031.041a.5.5 0 0 0 .1.106c.045-.033.117-.116.16-.168.143-.165.318-.369.592-.353q.26.013.452.291c.013.02.06.09.245.24a.1.1 0 0 0 .08.021c.61-.111.865.168 1.002.32l.028.031c.052-.023.176-.09.416-.294q.101-.086.175-.168c.086-.098.346-.392.7-.34.37.053.54.423.705.779.07.15.23.498.317.511.024.005.142-.033.349-.248l.039-.033c.317-.243.604-.148.756-.098.078.025.103.03.119.028.377-.258.697-.356.973-.356zM12.545 24.184l-.005.01z"/><path fill="#FF9916" d="M18.374 21.065a1.571 1.571 0 0 1-1.51-2L21.976 1.14a1.571 1.571 0 0 1 3.02.862l-5.111 17.923a1.57 1.57 0 0 1-1.51 1.141zM24.245 22.44a1.571 1.571 0 0 1-1.229-2.548l11.65-14.63a1.571 1.571 0 0 1 2.457 1.957l-11.649 14.63c-.31.39-.767.592-1.229.592M28.004 26.809a1.57 1.57 0 0 1-.761-2.946l15.356-8.496a1.57 1.57 0 1 1 1.52 2.75l-15.356 8.496c-.24.134-.5.196-.759.196"/><path fill="#FF9916" d="M19.779 40.71c-4.247 0-8.097-2.781-10.562-7.633-.94-1.845-1.955-3.317-3.016-4.373-1.048-1.04-2.158-1.689-3.304-1.929a1.57 1.57 0 1 1 .643-3.074c1.75.363 3.392 1.298 4.877 2.775 1.298 1.29 2.512 3.034 3.601 5.179 1.123 2.207 3.622 5.912 7.76 5.912 3.793 0 5.686-2.564 7.207-4.624.562-.764 1.05-1.422 1.6-1.918 1.893-1.704 8.998-2.466 11.964-2.713a1.571 1.571 0 1 1 .26 3.132c-4.2.35-9.273 1.205-10.125 1.917-.312.282-.728.847-1.172 1.446-1.629 2.208-4.355 5.902-9.733 5.902"/></g><defs><clipPath id="clip0_2085_554"><path fill="#fff" d="M0 0h128.285v48H0z"/></clipPath></defs></svg>
