<svg xmlns="http://www.w3.org/2000/svg" width="9" height="12" fill="none" viewBox="0 0 9 12"><g fill="#205F50" clip-path="url(#clip0_2559_22843)"><path d="M8.682.039C8.697.012 8.66.008 8.655 0c-.011.05.037.041.027.039M8.57.54 8.56.526l.005.084zM8.395.979c.074-.017.054-.163.105-.232l.018-.008-.032-.056c-.03.098-.05.235-.091.296M8.178 1.16c.028-.005 0 .06.028-.051l-.01.007q-.004.014-.018.044M8.196 1.115c-.03.022.018-.046 0 0M8.124 1.334l.005-.07c-.018.007-.043.06-.044.037-.014.067.003.06.04.033M8.143 1.41l.004-.035c-.007.003-.012.01-.004.035M8.157 1.3l-.009.076c.013-.006.033.002.007-.034.014.013.003-.008.003-.041M8.18 1.266c.027-.028.053-.07.048 0 .038-.12-.009-.12-.047 0M8.446 1.028l.035-.04-.004-.047c.001.023-.05.081-.031.087M7.944 1.7c.011.01.041-.006.059-.003l.003-.052c-.017.02-.042.06-.062.055"/><path d="m8.002 1.697-.006.076c.026-.06.021-.075.006-.076M8.203 1.45v-.131l-.009.15zM7.84 1.957l-.013-.05.015.086zM7.777 2.13c-.012-.039-.054.022-.057-.015-.015.048-.01.097-.006.14a.22.22 0 0 1 .063-.125M7.716 2.326q.002-.032-.002-.071a.2.2 0 0 0 .002.07M7.943 1.885c-.01.002-.032.004-.055.037l.044-.011zM7.934 1.91h-.001l-.025.057zM7.947 1.878l-.003.007q.008 0 .003-.007M8.102 1.612c.003.047-.01.139.052.072-.013-.039-.047 0-.052-.072M8.003 1.864l.036-.068c-.01-.003-.029.005-.03-.02zM8 1.904l.003-.04-.014.025zM7.797 2.218c.002.037-.01.072-.023.11a1 1 0 0 0 .06-.118c-.009-.01-.021-.036-.037.008M7.867 2.07v.007s.006-.007 0-.008M7.624 2.703l.009-.002-.006-.004z"/><path d="M7.842 2.206a.1.1 0 0 0 .014-.072 1 1 0 0 1-.024.076q.006.01.009-.004M7.69 2.438a.4.4 0 0 0 .04-.045c-.018.01-.048.036-.04.045M7.852 2.083v-.005c-.011.007-.008.008 0 .005M7.852 2.083q0 .026.005.05a.3.3 0 0 0 .008-.055l-.013.007zM7.798 2.912c-.03-.019-.027-.112.034-.167.004-.079-.118-.079-.2-.044.012.008.026.014.016.093.027-.017.103-.14.108-.067-.021.1-.042.072-.077.11.054-.023.01.144.077.148l.012-.09c.01.002.012.038.03.019zM7.69 2.567l.007-.031a.3.3 0 0 1-.083.082c-.003.056.004.07.014.079l.062-.142z"/><path d="M7.75 2.406c.025.037.012.113.066.087.032-.086-.005-.072 0-.13-.046.142-.004-.047-.063.043a.5.5 0 0 1 .021-.079 1 1 0 0 1-.045.065l.004-.003q.01-.007.005 0v.003q.007.004.011.011c-.023.038-.01.003-.01-.011q-.002-.001-.006-.004l-.036.147a1 1 0 0 0 .052-.13M8.197 1.79h-.01c0 .01.003.015.01 0"/><path d="M8.154 1.837c0-.011-.011-.026.005-.058.021-.023.016.008.029.01-.002-.023.002-.08-.039-.024v.012c-.033.05-.105.103-.105.091a.25.25 0 0 0 .11-.03M7.96 2.13l-.03.122.054-.045-.019-.005C8 2.14 7.97 2.144 7.96 2.13M7.602 2.71l-.03-.031.024.088zM7.546 2.86l-.03-.019.004.048zM4.461 11.456l-.019.039a.2.2 0 0 0 .019-.039M4.628 11.22l-.01-.015c0 .016.004.024.01.015M6.09 6.526c-.05.036-.117.07-.08.081h.04a.2.2 0 0 1 .04-.081M5.295 9.125l.016-.01-.02-.048q0 .028.004.057zM5.425 9.222l-.048.055a.3.3 0 0 0 .048-.055M2.94 11.49l-.061-.016c.048.063.042.023.06.016M6.949 4.394a.4.4 0 0 0-.063.096c.04-.042.086-.07.063-.096M4.211 11.116q-.009.03.002.037.013-.032-.002-.037M6.838 4.613l.017-.02a.4.4 0 0 1 .032-.103c-.03.031-.055.071-.048.123zM.732 6.722v-.013q-.007.001 0 .013M.443 5.175c.009.013.019.035.029.055a.2.2 0 0 0-.029-.055M7.291 3.454c-.001-.007.01-.032 0 0M7.49 3.36q0 .013.013.019a.03.03 0 0 1-.013-.02M6.929 5.021v.003c.01-.006.007-.005 0-.003M7.327 3.414q-.014.015-.026.036zM7.308 3.412l.014-.025c-.003-.007-.008-.005-.014.025"/><path d="M7.277 3.499a.3.3 0 0 1 .023-.05q-.007.007-.009.005-.003.013-.016.045zM1.982 9.211v-.007c-.028-.025-.02-.012 0 .007M6.12 7.506v-.004l-.002.004h.004zM6.101 7.63c-.024-.068-.007-.093.016-.126L6.002 7.5z"/><path d="M3.838 11.876q.058.006.12.008c-.123.097-.246.076-.12.117 0-.063.118-.083.22-.135a.5.5 0 0 0 .128-.084c.029-.03.042-.06.029-.087q.035-.01.068-.022c-.016.011-.012.02-.03.03.139-.042.024-.13.141-.231.041-.037.08-.055.066-.016q.029-.058.05-.116c.023-.027.034-.008.012.02.035-.052.063-.106.093-.16l.002.003a1 1 0 0 1 .005-.127c.036-.031 0 .025.019.023l.02-.1c.047-.021.036.065-.002.124.147-.023.017-.086.161-.233q-.011.047-.026.092c.087-.025.097-.103.175-.185-.028.017-.18.151-.163.04.02-.023.04-.058.04-.12.039.014.049-.038.071-.101l.05.025c.012-.073-.017-.078-.024-.129.035-.072.08-.07.121-.073.056-.116-.096.055-.05-.09.06-.09.067-.17.084-.302.046-.062.026.026.05.008l-.015-.079c.007-.014.017-.004.023 0 .005-.06-.05-.026-.03-.113-.048-.047.149-.132.124-.26.025-.019.026.025.05.026.013-.157.017-.131.006-.27l.072-.083c-.067.054-.076-.055-.082-.152l-.067.042.024-.139c.015-.011.027.01.04.039q0-.015-.003-.029c.037-.037.057 0 .073.044l-.05.033c.019.045.041.089.075.095a.1.1 0 0 1 .002-.048q.008.019.017.02c.008-.003 0-.021-.003-.047l.068-.004-.02-.016.102-.151c-.01-.145-.054-.284-.002-.484.024.065.065.04.113.063-.073.029-.036.156-.085.25.026-.05.044-.028.048-.011l.022-.195c.039.022.045-.024.08-.062-.093 0 0-.153.003-.234.029.007.05.036.009.12.099-.07-.045-.164.043-.236-.007.022-.016.03-.006.045-.004-.06.063-.173.076-.134l-.008.022c.066-.137.171-.428.112-.479.01.003.074.055.085.069l-.129-.35c.05.048.223.024.21.154.02-.03.048-.067.055-.147-.017.02-.107.02-.1-.013.1-.058.058-.044.156-.126-.026.028-.103-.05-.078-.102.01.014.093.035.094.058l-.036-.174c.003.04.075.038.112.019-.024.006.048-.116.053-.155l-.043.048c.074-.146-.067-.205-.003-.353.011.026.097.094.139.023-.032-.055-.16-.251-.143-.4l.038-.014.01-.115c.045.095.12.336.137.458.043-.048.037-.003.07-.089.036-.02.018.063.01.088l.095-.191c-.057-.014.006-.175-.041-.187l-.03.24c-.057-.014-.103-.191-.037-.328.036-.027.085.069.104.074-.011-.026.017-.148.036-.156l.005.072c.052-.07-.021-.159.068-.23.016-.032.108-.068.078-.087-.083.026-.276-.045-.309-.1.01-.01.127-.145.173-.17.069-.032.083.13.142.102-.014-.007-.02-.045-.021-.06.026-.029.04.033.063-.043-.05-.036.065-.148-.032-.055.014-.079.042-.072.073-.159-.046.012-.09-.127-.077-.207.013.01.037 0 .049-.003.064-.146.12-.215.175-.353.019-.007.061-.067.073-.029 0-.024-.012-.05.003-.094.08-.062-.031.098.05.06-.029-.02 0-.13.006-.199-.057-.003-.066.137-.07.206-.068-.028-.096-.165-.069-.323.028-.123.063-.031.062-.056.098-.211-.045-.234.075-.393.072-.053.087.034.124.031-.02.1-.084.132-.107.196l.052-.07c.002.036-.012.104-.038.132.062-.043.153-.361.256-.513-.003-.036.002-.093-.024-.076l-.015.055c-.054.034-.009-.12-.05-.06.003-.082-.003-.177.056-.269l.057.003c-.015-.004-.055.053-.05.086-.005-.05.127-.123.081-.197l-.062.056c.004-.082-.013-.193.037-.274-.064.02-.002.023-.084.06.092-.022-.093.225.016.17-.091.036-.071.099-.162.158.017.004.043-.016.005.054a.1.1 0 0 1 .008.022l-.004.004.003-.004s.002.006.002 0q.02-.022.04-.027c.022.053-.027.17-.023.218-.025.041-.011-.026-.038-.01l.005.072c-.039-.009-.107.092-.087-.022l-.038.093a.33.33 0 0 0-.085.171c-.024.04-.005.128-.017.078l-.036.156-.01-.003c-.062.142-.06.322-.19.46-.01.052-.02.106-.061.183l-.037.003c-.014.067-.106.174-.085.214-.11.031-.138.294-.197.397l.039.022c-.032.075-.05.152-.07.253l.038.01c-.003.094-.108.196-.156.326-.01-.014.006-.045.023-.064-.142.117-.07.347-.183.46 0 .04-.015.063-.034.084l.002-.01-.007.015q-.019.018-.038.04a.2.2 0 0 0 .036-.032 1 1 0 0 0-.028.112h-.046l-.003.01c-.03.032.006.039.044.031a.3.3 0 0 0 .002.062c-.074.005-.02.112-.104.128.022.04-.054.209.005.259-.01-.003-.019.008-.01-.014-.025.04-.05.08-.047.129l-.057-.003.027.125c-.053.045-.08.062-.095-.012.002.165-.024.124-.014.267l-.03-.02c-.016.043 0 .131-.037.145-.097.07-.197.468-.35.689.113-.008-.087.095-.019.136-.027.006-.053.034-.057-.014-.028.134-.11.173-.083.285-.028.005-.022-.041-.04-.033 0 .011.004.047-.014.055-.019.007-.011-.026-.013-.05-.047.129.017.171.076.209-.056.051-.064.085-.04.15-.03.013-.068.042-.043-.04-.021.043-.139.258-.09.285-.019.008-.029.061-.028.075-.043.1-.05.106-.085.206l.02-.023c.046.066-.019.088-.044.17l-.005-.005c-.116.163-.01.088-.132.245l.042.007c.076.053-.111.138-.121.255l.037-.028c.006.07-.176.11-.21.162-.012.01-.003-.025-.002-.044-.108.128.042.041.01.157-.035.008-.06-.054-.093.015-.033.023 0 .245-.1.307.03-.008.06-.019.05.037-.032.077-.178.136-.162.233q-.015.006-.022 0c-.009.031-.033.07-.054.112a.3.3 0 0 0-.043.105c-.068-.038-.116.032-.173.084-.054.055-.12.092-.134.024a.3.3 0 0 1-.07.016.2.2 0 0 1-.07.002l.004-.014c-.088-.017-.124-.001-.17.015-.018-.019.003-.023.007-.028-.059-.043-.086-.073-.12-.091-.032-.021-.071-.03-.142-.061l.024-.04c-.023-.005-.046-.064-.077-.135-.031-.073-.067-.16-.129-.226.005 0 .014-.001.026.008-.131-.15-.098-.497-.27-.493l-.091-.107c.061.165-.072.007-.066.084-.037-.06-.032-.184.011-.11v.016c.086-.008-.067-.212-.015-.232-.147-.313-.247-.64-.379-.937l-.042.062-.043-.105c0-.033.028-.058.06.017.014-.054-.084-.11-.097-.106-.042-.156.093.023.073-.022l-.033-.058v.017c-.045-.037-.073-.028-.11-.119-.013-.062.023-.046.015-.07.004 0 .003-.01-.013-.034l-.055-.133-.021.075c-.048-.046-.053-.124-.077-.037.039-.128-.193-.498-.193-.565a.64.64 0 0 1-.146-.245c.001.03-.042.07-.076-.02.12-.02-.026-.177.019-.283-.022.086-.123-.236-.15-.104-.024-.075.037-.024.037-.09-.117-.149-.143-.386-.252-.587-.015.004-.02.049-.061.014l.018-.145c-.026-.037-.096.002-.083-.098-.006.017-.017.042-.033.016-.12-.442-.437-.808-.5-1.285 0 .07-.021.033-.041-.01.006.032-.035.017-.051.032l-.027-.2C.34 5.05.318 4.873.262 4.88l.034.05c-.091-.044-.083.166-.163.193.104.05 0 .265.157.352-.001.038-.036-.012-.046.012.049.018.073.055.094.14L.326 5.62c.105.21.116.319.206.569l.028-.036c.019.054.012.07.014.099.083.03-.063-.147.023-.124-.044.106.166.365.102.454.036.08.032-.045.068.035l-.014.032.04.005c.018.054.002.095-.017.107-.004-.014-.023-.033-.03-.046.004.08.096.185.098.214l-.021-.084c.121.206.211.486.355.673l.01-.025c.105.145.04.138.135.307l-.007-.004a.3.3 0 0 1 .084.119c-.041-.035-.001.103-.051.057.114.156.067.072.185.154l-.018.042c.045.025.06.021.108.107-.058-.06-.019.077-.088.014.021.215.19.242.135.372.119.045-.028-.181.01-.143.009-.053.092.04.11.102.025.06-.057.15.013.298-.007-.016-.013-.013-.02-.028.005.065.078.095.075.179.066.014.037.09.104.07l-.077-.13c.053.07.158.106.18.25a.2.2 0 0 1-.072-.054c-.001.047.045.066.044.114-.067.02-.09-.159-.175-.218-.007.053.116.134.03.125.112.017.055.15.167.22l-.04.01c.014.014.046.038.058.068l-.071-.029c.078.061.036.175.094.242-.076-.163.028-.06.023-.141.141.177-.044.164.077.38-.019-.028-.03-.125.009-.086a.4.4 0 0 1 .016.146c.075.145.027-.042.08.01-.023.073.051.064.096.122l-.037.02c.053.181.099.006.14.174l-.082-.039.05.074-.051.005c.071.07.075.102.102.193.018-.033.073-.023.11.052 0 .062-.05-.012.004.093-.034-.013-.077-.025-.063-.088-.015.001-.035-.012-.05-.01 0 .068.059.141.076.18-.005-.015-.011-.035-.01-.046l.123.129c-.003.032-.024.018-.044.003.019.03.046.044.072.09-.036.003-.067.023-.112-.04l.107.137c-.008.017.005.1-.016.085.029.1.175.178.237.302.01.001.022.01.046.028.075.104.142.233.32.276q.029.052.066.101c.072.018.043-.013.028-.041s-.014-.05.092-.027c.154.014.047.065.102.091.09-.02.215-.085.363-.081-.041.028-.083.024-.127.04zm.965-1.036c-.002.027 0 .088-.03.094-.03-.05 0-.06.03-.094m.635-1.86c.007.024-.01.047-.037.07a.15.15 0 0 1 .037-.07m1.747-5.165v.004c-.035.045-.021.03 0-.004m.06-.1c0-.014-.007-.015-.014-.014.006.012-.003.037-.017.062.014-.004.026-.014.03-.05zm-5.16 5.04v.026c-.033-.04-.018-.032 0-.026"/><path d="M5.41 9.21a.03.03 0 0 1-.025 0c.002.012.01.016.025 0M2.95 11.492l-.002-.004H2.94l.012.003zM6.91 5.514a.1.1 0 0 1-.037.033c.009.006.021 0 .037-.033M7.405 3.119l-.017.073c.01-.033.024-.042.037-.057-.01-.002-.029.006-.02-.016M7.882 2.627c0-.011.007-.022.007-.033l-.019-.005c-.016.043-.013.078.013.038zM7.559 3.11c.034.01.04-.038.054-.09q0 .004-.004.01c-.04-.034-.044.024-.05.08M7.615 3.01q.007-.022.018-.045c-.017-.013-.012.017-.018.045M7.276 3.57c.018-.02-.036-.032-.017-.04-.031-.044-.011.174.017.04M7.68 3.119h-.046l.02.04zM7.5 3.485l.043-.072q-.01-.004-.005-.027c-.02.046-.048.095-.036.097zM7.536 3.387a.2.2 0 0 0 .019-.065.4.4 0 0 0-.019.065M7.651 3.228l-.017.02-.025.052zM7.164 4.307l-.022.09c.01.013.027-.006.034-.04-.001-.024.005-.057-.012-.05M7.374 4.101c-.017.02-.027.017-.046.023l.048.025-.003-.048M7.29 4.35c.009.014-.01.139.029.03-.01-.014.01-.103-.03-.03M6.723 5.585l.007-.022-.083-.032zM6.474 6.781c.06-.09-.041-.045.02-.125-.01-.032-.05.065-.056.034-.004.068-.027.095.037.09zM6.437 6.691v-.036zM.383 4.925l-.012-.07-.009.053zM.269 4.835l.044-.04L.25 4.78c.009.012.026.038.019.054M4.984 10.702l-.011-.01c-.017.003-.025.018-.038.047zM4.437 11.57l.013-.012-.06-.012zM3.504 11.978c.046.014.101.007.147.013-.104.004-.147-.081-.147-.013"/></g><defs><clipPath id="clip0_2559_22843"><path fill="#fff" d="M0 0h9v12H0z"/></clipPath></defs></svg>
