<svg width="737" height="609" viewBox="0 0 737 609" fill="none" xmlns="http://www.w3.org/2000/svg">
<path d="M573.015 610.324C571.992 610.65 570.828 610.743 569.759 610.464C550.638 605.433 546.312 572.689 521.516 592.997C515.933 596.351 511.281 594.022 507.187 593.23C505.233 592.857 503.186 593.602 501.791 595.046C483.601 612.886 472.529 596.863 464.201 580.747C462.341 577.114 457.549 576.275 454.572 579.07C444.244 588.572 430.892 598.167 422.1 586.336C414.237 579.443 405.305 587.361 395.396 577.58C393.024 575.251 389.255 574.878 386.836 577.16C382.603 581.213 377.02 584.147 371.531 582.843C368.274 582.051 365.018 583.635 363.901 586.755C360.319 596.863 350.457 600.496 346.549 586.15C345.386 582.61 344.409 580.235 343.618 578.651C342.734 576.927 341.106 575.763 339.198 575.437C320.078 572.223 300.586 564.817 279.977 556.992C237.921 539.945 110.732 505.477 84.0751 551.216C77.0503 567.006 57.6509 573.527 45.0436 565.469C42.2058 563.653 38.4841 564.445 36.6232 567.239C22.9924 587.78 7.36126 561.277 20.2477 541.808C37.321 510.88 24.8068 499.282 12.7577 488.01C-14.5968 462.253 4.52345 450.142 46.4858 427.273C46.8579 427.086 47.2301 426.807 47.5557 426.574C87.4246 394.389 16.2468 302.304 42.9036 269.141C52.394 257.077 83.982 264.902 100.683 273.659C111.755 277.664 118.082 268.395 127.945 265.088C130.55 264.203 132.085 261.548 131.992 258.8C131.759 251.953 133.202 246.597 140.552 244.315C145.297 242.917 149.019 243.336 152.508 243.989C155.16 244.454 157.765 243.15 159.068 240.821C162.975 233.881 167.953 231.599 175.21 233.136C177.118 233.509 179.211 233.229 180.607 231.878C185.724 226.941 191.121 236.909 194.052 243.849C195.68 247.668 200.751 249.112 203.682 246.178C210.613 239.191 187.957 228.525 202.193 192.054C202.332 191.728 202.426 191.402 202.472 191.076C213.079 135.136 225.593 160.288 242.527 140.073C241.55 129.873 257.553 127.311 269.835 122.048C274.348 120.091 274.999 113.803 270.812 111.242C258.623 103.742 262.438 86.6484 271.789 63.4992C274.906 56.6056 280.209 56.6522 284.768 57.0714C286.815 57.2577 288.816 56.3727 290.072 54.7425C300.958 40.4897 325.335 42.8651 332.965 44.0296C363.715 48.4545 363.343 -25.2318 400.56 9.1893C417.215 -3.61962 426.473 23.9545 435.451 24.2806C489.23 2.90129 469.086 27.4944 484.206 43.4241C488.439 46.4982 493.882 47.3366 498.767 45.6132C536.17 27.7273 588.832 50.3176 586.692 95.1256C583.575 127.87 612 120.837 584.645 165.971C581.482 166.11 595.671 180.41 607.394 184.555C614.838 187.862 612 194.337 609.069 199.833C607.673 202.441 608.371 205.655 610.651 207.518C623.677 218.231 629.259 238.912 645.449 246.224C656.242 253.025 660.801 258.8 662.708 268.163C666.802 287.539 685.736 282.415 700.251 290.473C708.299 294.153 712.905 302.816 711.184 311.154C710.625 313.855 717.557 317.815 722.163 320.423C754.774 336.027 722.349 348.742 714.58 366.209C697.878 407.524 649.403 354.704 633.586 384.188C632.888 385.539 632.749 387.169 633.214 388.566C638.657 405.381 656.474 406.173 649.682 427.832C649.031 429.928 649.45 432.257 650.985 433.84C657.126 440.221 656.661 459.831 659.731 470.963C659.824 471.242 659.917 471.475 660.01 471.755C673.269 503.381 657.498 507.2 633.632 511.206C633.493 511.206 633.353 511.206 633.214 511.253C598.369 514.793 614.838 512.231 592.368 537.523C591.996 537.942 591.531 538.314 591.065 538.594C563.618 555.735 603.114 600.496 573.062 610.464L573.015 610.324Z" fill="#004837"/>
</svg>
