<svg xmlns="http://www.w3.org/2000/svg" width="849" height="702" fill="none" viewBox="0 0 849 702"><path fill="#004837" d="M660.634 703.648c-1.18.376-2.52.483-3.754.161-22.044-5.799-27.032-43.551-55.62-20.137-6.436 3.866-11.799 1.181-16.519.268-2.253-.429-4.613.43-6.222 2.094-20.971 20.568-33.736 2.095-43.337-16.485-2.145-4.189-7.67-5.156-11.102-1.934-11.907 10.955-27.3 22.017-37.437 8.378-9.065-7.948-19.363 1.181-30.787-10.096-2.735-2.685-7.08-3.115-9.869-.483-4.881 4.672-11.317 8.055-17.646 6.551-3.754-.913-7.509.913-8.796 4.511-4.13 11.653-15.5 15.841-20.006-.698-1.34-4.081-2.467-6.82-3.379-8.646-1.019-1.987-2.896-3.329-5.095-3.705-22.044-3.706-44.517-12.244-68.277-21.266-48.486-19.654-195.124-59.392-225.857-6.658-8.099 18.204-30.465 25.722-45 16.432a7.055 7.055 0 0 0-9.708 2.041c-15.715 23.681-33.736-6.874-18.88-29.321 19.685-35.657 5.257-49.028-8.634-62.023-31.538-29.697-9.494-43.659 38.885-70.025.429-.215.858-.537 1.233-.806 45.966-37.107-36.096-143.272-5.363-181.506 10.942-13.909 47.36-4.887 66.615 5.209 12.765 4.618 20.059-6.068 31.43-9.881 3.003-1.02 4.773-4.081 4.666-7.25-.268-7.894 1.394-14.069 9.869-16.7 5.471-1.611 9.761-1.128 13.784-.376 3.057.537 6.061-.967 7.562-3.652 4.506-8.001 10.245-10.633 18.612-8.86 2.199.429 4.612.107 6.221-1.45 5.9-5.693 12.122 5.799 15.501 13.801 1.877 4.403 7.723 6.068 11.102 2.685 7.992-8.055-18.128-20.353-1.716-62.4q.241-.564.322-1.128c12.229-64.493 26.656-35.495 46.18-58.801-1.127-11.761 17.324-14.714 31.483-20.782 5.203-2.256 5.954-9.505 1.127-12.459-14.053-8.645-9.655-28.353 1.126-55.042 3.594-7.948 9.708-7.894 14.964-7.41a6.94 6.94 0 0 0 6.115-2.686c12.55-16.432 40.655-13.693 49.451-12.35 35.453 5.1 35.024-79.853 77.932-40.169 19.201-14.767 29.874 17.023 40.226 17.4 62.002-24.65 38.778 3.705 56.209 22.07 4.881 3.544 11.156 4.51 16.788 2.524 43.123-20.62 103.837 5.424 101.37 57.083-3.593 37.751 29.178 29.643-2.36 81.678-3.647.161 12.712 16.647 26.228 21.426 8.581 3.813 5.309 11.277 1.93 17.614-1.609 3.007-.804 6.713 1.824 8.861 15.018 12.351 21.454 36.193 40.119 44.624 12.443 7.841 17.7 14.499 19.899 25.293 4.719 22.339 26.549 16.432 43.283 25.722 9.279 4.243 14.589 14.231 12.604 23.843-.643 3.115 7.348 7.679 12.658 10.687 37.598 17.989.215 32.649-8.742 52.787-19.255 47.632-75.143-13.264-93.379 20.728-.804 1.557-.965 3.437-.429 5.048 6.275 19.386 26.817 20.299 18.987 45.269-.751 2.417-.268 5.102 1.502 6.927 7.079 7.357 6.543 29.965 10.083 42.799.107.323.214.591.322.913 15.286 36.463-2.897 40.866-30.411 45.484-.161 0-.322 0-.483.054-40.173 4.081-21.186 1.128-47.091 30.287-.43.483-.966.913-1.502 1.235-31.645 19.762 13.891 71.367-20.757 82.859z"/></svg>
