<svg xmlns="http://www.w3.org/2000/svg" width="18" height="23" fill="none" viewBox="0 0 18 23"><path fill="#FF9916" d="M17.099.074c.03-.052-.047-.06-.055-.074-.022.096.075.079.055.074M16.876 1.03l-.02-.028.01.16zM16.524 1.865c.149-.032.11-.31.211-.442l.037-.015-.064-.106c-.062.187-.1.448-.184.563M16.09 2.212c.058-.01 0 .113.058-.098l-.02.015c-.008.017-.017.044-.037.083M16.128 2.126c.034-.089-.062.042 0 0M15.984 2.544l.01-.133c-.037.012-.087.113-.09.069-.027.128.008.113.08.064M16.022 2.688l.007-.066c-.014.005-.024.02-.007.066M16.049 2.48l-.018.142c.025-.01.065.005.013-.064.03.025.007-.015.007-.079zM16.096 2.413c.052-.054.104-.133.094 0 .077-.228-.018-.228-.094 0M16.626 1.959l.07-.074-.008-.091c.003.044-.101.155-.062.165M15.623 3.241c.022.018.082-.012.117-.007l.007-.098c-.035.037-.084.115-.124.105"/><path fill="#FF9916" d="m15.739 3.234-.012.145c.052-.113.042-.142.012-.145M16.14 2.762v-.248l-.017.288zM15.414 3.73l-.024-.095.03.164zM15.288 4.06c-.024-.074-.109.042-.114-.027-.03.09-.02.184-.012.265a.4.4 0 0 1 .126-.238M15.166 4.434c.005-.042 0-.087-.005-.136a.4.4 0 0 0 .005.136M15.622 3.593c-.02.005-.064.007-.111.071l.089-.022z"/><path fill="#FF9916" d="M15.603 3.642H15.6l-.05.108zM15.628 3.58s-.002.008-.005.013q.015 0 .005-.012M15.938 3.072c.007.09-.018.265.103.137-.024-.073-.094 0-.104-.137M15.741 3.554l.072-.13c-.02-.005-.057.01-.06-.037zM15.734 3.63l.007-.076-.027.046zM15.328 4.227c.005.071-.02.137-.045.211.047-.071.087-.15.12-.226-.018-.02-.043-.069-.075.015M15.469 3.944v.015s.012-.012 0-.015M14.983 5.153l.018-.005-.013-.007z"/><path fill="#FF9916" d="M15.42 4.205a.17.17 0 0 0 .027-.138 1 1 0 0 1-.048.145c.008.01.015.013.018-.007zM15.115 4.647a1 1 0 0 0 .079-.086c-.035.02-.094.069-.08.086M15.439 3.971v-.01c-.022.013-.015.015 0 .01M15.439 3.971c-.002.035.005.064.01.096a.6.6 0 0 0 .017-.106.1.1 0 0 1-.027.013zM15.33 5.551c-.06-.036-.055-.213.07-.32.007-.149-.239-.149-.402-.083.025.015.052.027.032.177.055-.032.206-.265.216-.127-.042.191-.085.137-.154.208.11-.041.02.276.154.283l.024-.172c.02.005.025.074.06.037zM15.115 4.893l.015-.059a.6.6 0 0 1-.166.157c-.008.106.007.133.027.15l.124-.27z"/><path fill="#FF9916" d="M15.234 4.586c.052.071.025.216.134.167.064-.165-.01-.138 0-.248-.092.27-.008-.091-.127.081a1 1 0 0 1 .043-.15 1 1 0 0 1-.09.123l.008-.005c.012-.007.02-.01.01 0v.005c.01.005.014.015.022.022-.047.071-.022.005-.022-.022q-.004-.002-.01-.007l-.072.28a1.4 1.4 0 0 0 .104-.249zM16.13 3.411s-.015.003-.02 0c0 .02.005.03.02 0"/><path fill="#FF9916" d="M16.044 3.502c0-.022-.023-.05.01-.11.042-.045.032.014.057.019-.003-.044.005-.152-.077-.047v.022c-.067.096-.21.197-.21.175a.5.5 0 0 0 .22-.06M15.652 4.06l-.057.233.106-.086-.037-.01c.067-.118.01-.11-.01-.137zM14.939 5.166l-.062-.06.05.168zM14.827 5.453l-.06-.037.008.091zM8.657 21.838l-.037.074a.3.3 0 0 0 .037-.074M8.992 21.388l-.022-.03c.002.033.01.048.022.03M11.913 12.44c-.1.069-.233.135-.159.155h.082a.33.33 0 0 1 .076-.155M10.325 17.395l.032-.02q-.021-.05-.04-.09.002.051.008.107zM10.585 17.58l-.097.105a.5.5 0 0 0 .097-.106M5.614 21.902l-.122-.03c.097.12.084.044.122.03M13.634 8.375a.8.8 0 0 0-.126.185c.082-.081.173-.135.126-.185M8.157 21.189c-.012.04-.01.061.005.071q.024-.062-.005-.071M13.411 8.793q.018-.018.035-.037a.7.7 0 0 1 .064-.196c-.06.059-.111.135-.096.233zM1.199 12.814v-.025c-.01 0-.008.012 0 .025M.622 9.865c.017.024.037.066.057.105a.3.3 0 0 0-.057-.105M14.318 6.584c.02-.061-.003-.012 0 0M14.716 6.404q-.001.027.025.037a.07.07 0 0 1-.025-.037M13.592 9.572v.005c.02-.012.015-.01 0-.005M14.389 6.507c-.017.02-.037.042-.052.07a1 1 0 0 0 .052-.07M14.35 6.505l.03-.049c-.008-.012-.018-.01-.03.05"/><path fill="#FF9916" d="M14.288 6.67a.6.6 0 0 1 .047-.096q-.014.015-.018.01c-.007.017-.014.044-.032.086zM3.699 17.56v-.015c-.057-.047-.04-.023 0 .014M11.977 14.308V14.3l-.005.008h.007zM11.936 14.544c-.047-.128-.014-.177.033-.239l-.23-.01z"/><path fill="#FF9916" d="M7.411 22.639q.115.01.238.015c-.245.184-.49.145-.238.223 0-.12.235-.16.438-.258.102-.046.196-.103.258-.16.057-.058.084-.115.057-.167q.072-.017.136-.041c-.032.022-.025.039-.06.059.278-.081.048-.249.283-.443.082-.069.159-.103.131-.03.04-.073.07-.147.102-.22.045-.052.067-.015.022.036.07-.098.127-.201.186-.302l.005.005a2 2 0 0 1 .01-.243c.072-.06 0 .049.037.044l.042-.192c.092-.04.07.126-.005.239.293-.045.032-.165.322-.445q-.024.09-.052.174c.174-.046.193-.196.35-.351-.057.032-.362.287-.327.076.042-.044.079-.11.079-.23.08.029.099-.072.143-.193l.1.05c.024-.14-.033-.15-.048-.246.07-.138.161-.135.243-.14.112-.222-.193.105-.099-.172.119-.172.131-.322.166-.575.092-.118.052.049.102.014l-.033-.15c.015-.027.035-.007.047 0 .01-.113-.099-.049-.061-.216-.095-.088.3-.25.25-.496.05-.035.052.049.099.051.027-.3.034-.25.012-.516l.144-.157c-.134.103-.151-.106-.164-.29a2 2 0 0 0-.133.081l.047-.265c.03-.022.054.017.079.073q-.001-.03-.005-.054c.074-.071.114 0 .146.084l-.099.061c.037.086.082.17.149.182a.2.2 0 0 1 .005-.09c.01.021.022.039.034.036.015-.005 0-.04-.007-.088l.136-.008-.04-.032.204-.287c-.02-.276-.107-.54-.003-.922.047.123.129.076.226.12-.147.055-.072.298-.171.475.052-.093.089-.052.096-.02l.045-.37c.077.04.089-.047.16-.119-.187 0-.002-.292.006-.447.057.015.099.069.017.229.198-.133-.09-.313.087-.45-.015.042-.032.059-.013.086-.007-.113.127-.33.152-.256l-.015.042c.13-.26.341-.816.223-.912.02.005.148.103.17.13l-.257-.665c.099.09.446.044.418.292.043-.057.097-.128.112-.28-.035.037-.216.04-.2-.025.197-.11.116-.083.311-.24-.052.053-.205-.094-.156-.195.02.027.186.066.189.11l-.072-.331c.005.076.148.074.223.037-.047.012.096-.221.106-.295l-.087.09c.15-.277-.133-.39-.004-.673.022.05.193.18.277.045-.064-.106-.32-.48-.285-.762l.074-.027.023-.219c.089.18.238.64.272.873.087-.091.075-.005.139-.17.074-.037.037.12.02.167l.19-.364c-.114-.027.013-.334-.081-.356l-.06.457c-.114-.027-.205-.364-.074-.624.072-.052.17.13.208.14-.022-.05.035-.283.072-.297l.01.137c.104-.132-.042-.302.136-.44.032-.059.215-.127.156-.164-.166.049-.552-.086-.617-.192.018-.017.253-.275.345-.322.138-.061.165.248.284.194-.027-.014-.04-.086-.042-.115.052-.054.08.064.127-.081-.1-.07.128-.283-.065-.106.027-.15.085-.138.146-.302-.091.022-.178-.244-.153-.396.025.02.074.002.096-.005.13-.278.24-.41.352-.673.037-.013.121-.128.146-.054-.002-.047-.025-.096.005-.18.161-.118-.062.187.102.113-.06-.037 0-.245.01-.378-.114-.005-.132.26-.139.393-.136-.054-.193-.315-.139-.617.057-.233.127-.059.124-.105.196-.404-.089-.448.151-.75.144-.1.174.064.248.059-.042.192-.168.25-.216.373l.104-.132c.005.069-.022.196-.074.25.124-.08.305-.688.51-.978-.005-.068.005-.177-.047-.145l-.03.106c-.108.064-.017-.229-.1-.115.007-.155-.006-.337.113-.512l.114.005c-.03-.007-.111.101-.102.165-.01-.096.256-.236.164-.376l-.124.106c.007-.155-.027-.367.074-.521-.129.036-.005.044-.168.115.183-.044-.186.428.032.322-.183.069-.144.19-.324.302.034.008.086-.032.01.104.007.01.012.029.014.041-.002.005-.005.005-.007.008l.007-.008s.003.01.003 0c.027-.027.057-.049.08-.051.044.1-.053.324-.046.415-.049.079-.022-.05-.076-.02l.01.138c-.077-.017-.213.174-.174-.042l-.077.177a.62.62 0 0 0-.168.327c-.05.076-.01.243-.035.147l-.072.298-.02-.005c-.123.27-.118.614-.378.875-.02.1-.04.204-.124.351l-.074.005c-.028.128-.21.332-.169.408-.22.06-.277.56-.394.757l.077.042c-.064.142-.099.29-.141.482l.077.02c-.005.179-.216.373-.312.62-.02-.026.012-.085.047-.122-.285.224-.139.661-.367.877 0 .077-.03.12-.067.16q.002-.01.003-.017l-.013.027c-.024.025-.052.047-.076.076a.4.4 0 0 0 .071-.061c-.02.051-.042.132-.057.213h-.091l-.005.02c-.06.062.012.074.086.06a.5.5 0 0 0 .005.117c-.148.01-.04.214-.208.243.045.08-.109.399.01.494-.02-.005-.037.015-.02-.027-.05.079-.101.155-.094.246l-.114-.005.055.239c-.107.086-.161.118-.19-.022.004.314-.048.235-.028.508l-.06-.037c-.032.081 0 .248-.074.276-.195.132-.394.892-.7 1.312.225-.015-.174.182-.038.26-.054.01-.107.064-.114-.027-.057.256-.22.33-.166.543-.057.01-.045-.078-.08-.063 0 .022.008.09-.029.105-.037.013-.022-.049-.025-.096-.094.246.033.327.152.399-.112.098-.13.162-.082.287-.06.025-.134.079-.085-.079-.042.084-.277.494-.18.546-.037.015-.057.116-.055.143-.086.189-.101.201-.17.393l.039-.045c.092.126-.037.168-.087.325l-.01-.01c-.233.31-.02.167-.265.467l.085.012c.15.101-.223.263-.243.487l.074-.054c.012.133-.352.209-.419.31-.024.017-.007-.047-.004-.084-.216.243.084.079.02.3-.07.015-.12-.103-.186.027-.067.044 0 .467-.201.585.06-.015.121-.035.101.071-.064.147-.356.26-.324.445q-.032.01-.045 0c-.017.059-.066.133-.109.214a.5.5 0 0 0-.084.199c-.136-.072-.233.061-.347.16-.109.105-.24.176-.267.046a.5.5 0 0 1-.139.03.5.5 0 0 1-.143.005l.01-.027c-.176-.032-.248-.003-.342.029-.035-.037.007-.044.015-.054-.117-.081-.171-.14-.238-.175-.065-.039-.144-.056-.285-.115l.047-.076c-.045-.01-.092-.123-.154-.258-.062-.138-.133-.305-.257-.43.01 0 .027-.003.052.014-.263-.285-.196-.946-.54-.938l-.183-.204c.123.314-.144.012-.132.16-.074-.114-.064-.352.023-.21v.03c.17-.015-.134-.403-.03-.442-.295-.598-.496-1.222-.758-1.787l-.084.118-.087-.2c0-.063.057-.11.119.033.03-.103-.166-.21-.193-.202-.085-.297.185.045.146-.041l-.065-.111v.032c-.091-.071-.146-.054-.22-.226-.027-.118.045-.089.03-.133.007-.002.005-.02-.028-.066l-.109-.253-.042.142c-.096-.088-.106-.236-.153-.071.077-.244-.387-.949-.387-1.077-.138-.123-.21-.275-.292-.466.003.056-.084.132-.151-.037.238-.04-.052-.34.037-.541-.044.165-.245-.45-.3-.2-.047-.142.075-.043.075-.171-.236-.283-.288-.735-.506-1.118-.03.007-.04.093-.121.027l.037-.276c-.052-.07-.193.003-.166-.186-.012.032-.034.078-.067.03-.24-.844-.874-1.542-1-2.451 0 .133-.042.064-.082-.017.012.059-.07.032-.102.059L.55 9.64C.416 9.629.372 9.289.258 9.3l.069.097c-.183-.084-.166.317-.327.368.208.094 0 .504.315.671-.003.071-.072-.024-.092.022.097.035.146.106.188.266l-.025-.01c.21.4.233.607.412 1.084l.057-.07c.037.104.024.136.027.19.166.059-.127-.28.047-.236-.09.202.332.696.203.865.072.152.064-.086.136.066l-.027.062.08.01c.036.103.004.182-.035.204-.008-.027-.045-.064-.06-.089.008.155.193.354.196.408l-.042-.16c.242.394.423.927.71 1.283l.02-.046c.21.275.08.263.27.585l-.015-.008a.6.6 0 0 1 .169.226c-.082-.066-.003.197-.102.108.228.298.134.138.37.295l-.035.079c.089.05.119.042.215.204-.116-.113-.037.147-.176.027.042.41.38.462.27.71.238.086-.057-.346.02-.273.018-.1.183.077.22.194.05.114-.113.288.025.568-.012-.03-.024-.024-.04-.054.01.126.157.182.152.342.131.027.074.172.208.133l-.154-.246c.104.132.315.201.36.477a.5.5 0 0 1-.144-.104c-.003.089.089.126.087.216-.134.037-.179-.302-.35-.415-.015.101.233.256.06.239.225.032.111.287.334.417l-.08.023c.028.024.093.07.117.127l-.143-.054c.156.116.071.332.188.46-.151-.31.057-.113.047-.268.282.337-.09.312.154.725-.038-.054-.06-.238.017-.165a.7.7 0 0 1 .032.278c.151.278.055-.079.159.02-.045.14.104.122.193.233l-.075.037c.107.346.199.012.28.332l-.163-.074.099.14-.102.01c.144.135.152.194.206.369.035-.064.146-.045.218.098 0 .118-.1-.022.01.177-.07-.025-.154-.047-.126-.167-.03.002-.07-.022-.1-.02 0 .13.117.27.152.344a.3.3 0 0 1-.02-.088l.245.245c-.005.062-.047.035-.087.008.037.056.092.083.144.17-.072.007-.134.043-.225-.075l.215.261c-.017.032.01.19-.032.162.057.19.35.34.473.575.02.003.045.018.092.054.15.197.284.443.639.526q.06.098.133.192c.144.034.087-.025.057-.079s-.03-.093.184-.051c.307.027.094.125.203.174.18-.04.43-.162.726-.155-.082.055-.166.047-.253.077zm1.93-1.976c-.005.052 0 .167-.062.18-.06-.094 0-.114.062-.18m1.27-3.544c.013.044-.022.089-.074.133a.3.3 0 0 1 .074-.133m3.493-9.847v.007c-.07.086-.042.057 0-.007m.119-.192c0-.025-.013-.027-.028-.025.013.023-.005.07-.032.118.027-.007.052-.027.06-.095zm-10.32 9.61v.048c-.064-.076-.034-.061 0-.049"/><path fill="#FF9916" d="M10.554 17.557a.07.07 0 0 1-.05 0c.006.022.02.03.05 0M5.636 21.907l-.005-.008h-.018l.023.005zM13.554 10.51a.2.2 0 0 1-.075.065c.018.01.043 0 .075-.064M14.545 5.945l-.034.14c.022-.064.05-.081.074-.108-.02-.005-.057.01-.04-.032M15.499 5.009c0-.022.014-.042.014-.064l-.037-.01c-.032.084-.027.15.025.074zM14.853 5.93c.069.017.081-.074.108-.172q0 .007-.007.017c-.08-.064-.09.047-.102.155M14.966 5.738q.014-.045.035-.086c-.033-.024-.023.032-.035.086M14.288 6.805c.034-.037-.072-.062-.035-.076-.062-.084-.022.331.035.076M15.097 5.945h-.094l.042.078zM14.736 6.643l.084-.138c-.015-.002-.015-.024-.01-.051-.04.088-.096.181-.072.186zM14.808 6.456a.3.3 0 0 0 .037-.123 1 1 0 0 0-.037.123M15.038 6.154l-.034.037-.05.1zM14.062 8.21l-.044.17c.02.027.054-.01.069-.074-.002-.046.01-.11-.025-.095M14.483 7.817c-.034.037-.054.032-.091.045l.096.046-.007-.09zM14.313 8.292c.02.027-.018.265.059.059-.02-.027.022-.197-.06-.059M13.18 10.646l.015-.042-.166-.061zM12.683 12.927c.119-.172-.082-.086.04-.239-.02-.06-.1.123-.112.064-.007.13-.054.182.074.172zM12.608 12.755v-.069c-.003.037 0 .057 0 .069M.501 9.388l-.025-.133-.017.101zM.273 9.216l.09-.076-.127-.027c.018.024.052.074.037.103M9.703 20.4l-.023-.02c-.034.008-.05.035-.076.091zM8.608 22.057l.027-.025-.121-.022zM6.743 22.833c.092.027.203.012.295.025-.208.007-.295-.155-.295-.025"/></svg>
