<svg xmlns="http://www.w3.org/2000/svg" width="44" height="70" fill="none" viewBox="0 0 44 70"><path fill="currentColor" d="M35.533 16.667H42.3c.932 0 1.692-.749 1.692-1.667V1.667C43.993.749 43.233 0 42.3 0H32.148c-10.26 0-18.612 8.226-18.612 18.333V26.8H1.692C.76 26.8 0 27.549 0 28.467v13.2c0 .918.76 1.666 1.692 1.666h10.667v25c0 .918.76 1.667 1.692 1.667H28.18c.932 0 1.692-.749 1.692-1.667v-25h8.9c.77 0 1.448-.508 1.643-1.25l3.529-13.333a1.63 1.63 0 0 0-.297-1.442 1.7 1.7 0 0 0-1.336-.651H30.466v-5c0-2.757 2.277-5 5.076-5zM28.765 30h11.344l-2.647 10h-9.289c-.932 0-1.692.749-1.692 1.667v25H15.738v-25c0-.918-.76-1.667-1.692-1.667H3.378v-9.867h11.844c.932 0 1.692-.748 1.692-1.666V18.333c0-8.268 6.828-15 15.229-15h8.46v10h-5.076c-4.663 0-8.46 3.74-8.46 8.334v6.666c0 .918.76 1.667 1.692 1.667z"/></svg>
