<svg xmlns="http://www.w3.org/2000/svg" width="77" height="70" fill="none" viewBox="0 0 77 70"><path fill="currentColor" fill-rule="evenodd" d="m5.845 27.275 14.045 9.36L66.464 6.677zm32.232 25.809-2.684 9.263 6.853-6.485zm-6.534 9.626-9.436-23.216 42.929-27.61-29.413 37.224c-.145.182-.253.39-.317.614l-3.765 12.99zm13.77-4.805L33.18 69.387a1.802 1.802 0 0 1-3.025-.513L18.411 39.979.837 28.269a1.803 1.803 0 0 1 .386-3.23L74.625.095a1.796 1.796 0 0 1 2.326 2.12L61.697 65.779a1.8 1.8 0 0 1-.273.691 1.8 1.8 0 0 1-2.496.509l-13.615-9.076zm26.2-48.418L58.78 62.547 39.654 49.804z" clip-rule="evenodd"/></svg>
