<svg xmlns="http://www.w3.org/2000/svg" width="48" height="44" fill="none" viewBox="0 0 48 44"><path fill="currentColor" fill-rule="evenodd" d="m3.644 17.144 8.755 5.883 29.032-18.83zm20.092 16.223-1.673 5.823 4.272-4.077zm-4.073 6.05-5.882-14.592L40.54 7.47 22.207 30.868q-.136.173-.197.386l-2.347 8.164zm8.584-3.02-7.563 7.218a1.12 1.12 0 0 1-1.032.369 1.12 1.12 0 0 1-.853-.692L11.477 25.13.522 17.77a1.13 1.13 0 0 1-.514-1.093 1.14 1.14 0 0 1 .754-.938L46.52.06a1.11 1.11 0 0 1 1.114.235 1.13 1.13 0 0 1 .335 1.097l-9.508 39.955a1.13 1.13 0 0 1-.479.749 1.12 1.12 0 0 1-1.248.005l-8.487-5.705zM44.579 5.964l-7.937 33.352-11.923-8.01z" clip-rule="evenodd"/></svg>
