<svg width="522" height="432" viewBox="0 0 522 432" fill="none" xmlns="http://www.w3.org/2000/svg">
<path d="M405.719 431.784C404.994 432.015 404.17 432.081 403.413 431.883C389.875 428.324 386.812 405.159 369.255 419.526C365.302 421.898 362.008 420.251 359.11 419.691C357.726 419.427 356.277 419.954 355.289 420.976C342.41 433.596 334.57 422.261 328.674 410.859C327.357 408.289 323.964 407.696 321.856 409.673C314.543 416.395 305.09 423.184 298.864 414.814C293.297 409.937 286.973 415.539 279.957 408.619C278.277 406.971 275.609 406.707 273.896 408.322C270.899 411.189 266.946 413.265 263.059 412.342C260.754 411.782 258.448 412.902 257.657 415.11C255.121 422.261 248.138 424.831 245.371 414.682C244.548 412.177 243.856 410.497 243.296 409.376C242.67 408.157 241.517 407.333 240.167 407.103C226.629 404.829 212.827 399.59 198.235 394.054C168.458 381.993 78.4028 357.608 59.5287 389.968C54.5549 401.138 40.8192 405.752 31.8927 400.051C29.8835 398.766 27.2483 399.326 25.9308 401.303C16.2796 415.835 5.21208 397.085 14.3362 383.311C26.4249 361.431 17.5642 353.226 9.03301 345.251C-10.3352 327.029 3.20279 318.461 32.9139 302.281C33.1774 302.15 33.4409 301.952 33.6715 301.787C61.9003 279.017 11.5034 213.87 30.3776 190.408C37.0971 181.874 59.4628 187.41 71.2879 193.605C79.1274 196.438 83.6071 189.881 90.5902 187.541C92.4348 186.915 93.5218 185.037 93.4559 183.093C93.2912 178.249 94.3123 174.459 99.5167 172.845C102.877 171.856 105.512 172.153 107.982 172.614C109.86 172.943 111.704 172.021 112.626 170.373C115.393 165.463 118.918 163.849 124.056 164.936C125.407 165.2 126.889 165.002 127.877 164.046C131.501 160.553 135.322 167.605 137.397 172.515C138.55 175.217 142.14 176.239 144.215 174.163C149.123 169.22 133.082 161.674 143.161 135.872C143.26 135.641 143.326 135.411 143.359 135.18C150.869 95.6043 159.729 113.399 171.719 99.0972C171.028 91.8807 182.359 90.0683 191.055 86.3447C194.25 84.9607 194.711 80.5121 191.746 78.6997C183.116 73.3944 185.817 61.3009 192.438 44.9236C194.645 40.0466 198.4 40.0796 201.628 40.3761C203.077 40.5079 204.494 39.8819 205.383 38.7285C213.091 28.6451 230.351 30.3257 235.753 31.1495C257.526 34.28 257.262 -17.8507 283.613 6.50113C295.406 -2.56076 301.96 16.947 308.318 17.1777C346.395 2.05256 332.133 19.4514 342.838 30.7211C345.835 32.896 349.689 33.4891 353.148 32.2699C379.631 19.6162 416.918 35.598 415.403 67.2982C413.196 90.4637 433.322 85.4879 413.953 117.419C411.714 117.518 421.76 127.634 430.061 130.567C435.331 132.906 433.322 137.487 431.246 141.375C430.258 143.22 430.752 145.494 432.366 146.812C441.589 154.391 445.542 169.022 457.005 174.196C464.647 179.007 467.875 183.093 469.225 189.716C472.124 203.424 485.53 199.8 495.807 205.5C501.505 208.104 504.766 214.233 503.548 220.131C503.152 222.042 508.06 224.843 511.321 226.689C534.412 237.728 511.453 246.724 505.952 259.081C494.127 288.31 459.805 250.942 448.605 271.8C448.111 272.756 448.012 273.909 448.342 274.898C452.196 286.794 464.811 287.354 460.002 302.677C459.541 304.16 459.838 305.807 460.925 306.928C465.272 311.442 464.943 325.315 467.117 333.191C467.183 333.388 467.249 333.553 467.315 333.751C476.702 356.126 465.536 358.828 448.638 361.661C448.539 361.661 448.441 361.662 448.342 361.694C423.67 364.199 435.331 362.386 419.421 380.28C419.158 380.576 418.828 380.84 418.499 381.037C399.065 393.164 427.03 424.831 405.752 431.883L405.719 431.784Z" fill="#004837"/>
<path d="M321.885 287.324C320.63 287.38 319.375 287.493 318.121 287.55C316.638 287.663 315.155 287.776 313.958 287.72H312.019H311.049C310.821 287.72 310.821 287.663 310.878 287.437L310.992 286.928C311.277 285.626 311.619 284.382 311.904 283.137C312.247 281.893 312.418 280.705 313.045 279.46C313.501 278.329 314.072 276.744 314.471 276.235C315.269 274.764 316.125 273.407 317.094 272.162C320.972 267.184 325.592 263.846 330.154 261.3C339.45 256.209 348.232 254.511 356.388 252.135C364.6 249.816 372.47 247.213 379.599 241.33C386.728 235.559 393.628 226.791 397.107 214.288C397.791 211.29 398.362 208.235 398.533 205.123C398.647 203.652 398.704 201.785 398.59 200.71V200.484C398.59 200.484 398.476 200.484 398.419 200.484L395.567 202.012L386.499 206.82C374.409 213.213 362.319 219.606 350.799 225.659C339.564 230.92 320.63 241.726 307.456 248.175L302.609 251.174C300.898 252.022 299.13 252.927 297.305 253.832C295.081 255.02 292.971 256.095 290.975 257.001L287.895 258.471L287.154 258.867L287.325 258.019L287.667 256.322C288.066 254.115 288.522 251.966 288.921 249.759L288.693 250.382C289.093 248.741 289.435 247.157 289.891 245.46L290.689 243.027L291.146 241.613C291.83 239.746 292.514 237.935 293.256 236.238C294.681 232.9 296.107 230.072 297.077 228.431L296.849 228.658C298.331 225.885 299.928 223.227 301.582 220.568L300.613 221.869C307.855 210.554 316.638 200.145 323.71 190.697L323.482 191.715C331.009 181.532 335.8 174.517 339.621 167.389C343.328 160.204 346.579 152.906 347.434 141.988L347.32 142.271C348.232 135.482 347.833 129.202 346.236 123.658C345.495 120.886 344.354 118.34 343.1 115.908C342.358 114.776 341.731 113.532 340.933 112.513C340.704 112.23 340.419 111.891 340.134 111.608C339.849 111.042 339.678 111.891 339.45 112.117L339.165 112.626L338.024 114.324C336.37 116.756 334.659 119.246 332.891 121.791C329.299 126.883 325.421 132.314 320.915 138.254C323.139 135.256 320.174 139.668 320.459 139.499C312.475 150.7 303.977 162.694 303.179 162.411C297.419 170.614 298.731 169.256 298.217 170.501C297.932 170.218 292.799 177.289 288.294 183.682L290.461 180.797L277.516 199.126L279.455 195.11C272.782 204.953 278.428 198.052 271.756 207.33L271.356 206.877C268.847 210.611 266.566 213.949 264.399 217.173C262.973 219.323 261.604 221.36 260.293 223.17L258.239 225.999L257.726 226.734C257.726 226.734 257.555 227.073 257.498 227.017V226.621L257.099 225.037C256.7 222.887 256.3 220.681 255.901 218.474C255.616 216.098 255.217 213.609 255.16 210.894C254.932 207.386 254.989 203.652 255.388 199.579C257.327 182.607 263.657 166.654 268.106 150.587C272.497 134.69 275.234 117.548 269.246 102.387C266.395 94.9192 261.775 88.0173 255.559 83.3217C254.019 82.1337 252.365 81.1154 250.597 80.2668C249.913 79.9273 248.944 79.4182 248.373 79.4748L248.145 82.5863C247.974 84.6795 247.803 86.7161 247.575 88.7527C245.807 105.159 242.328 120.999 237.538 135.821L237.081 138.537C237.424 139.951 230.067 154.264 229.496 156.584L226.246 163.033C225.504 164.9 223.851 168.803 225.447 165.635C222.71 171.632 222.539 171.745 220.429 175.988L218.091 182.607C213.414 194.544 210.334 205.915 210.62 217.682C210.848 229.28 214.555 241.33 224.649 249.816C230.637 255.02 239.477 259.659 248.715 266.448C253.278 269.956 257.897 273.972 261.319 279.743C262.916 282.628 264.228 286.418 263.201 290.492C262.403 294.395 258.753 297.903 255.046 298.751C251.396 299.883 247.86 299.543 244.609 298.978C241.302 298.355 238.222 297.28 235.256 295.753C229.782 292.811 224.706 289.643 219.973 286.249C210.449 279.517 202.521 272.049 196.419 265.373C191.115 259.603 185.983 253.55 179.995 248.401C174.064 243.253 166.992 239.123 159.293 238.105C151.594 237.087 143.496 239.406 136.994 243.819C133.743 246.025 130.835 248.797 128.554 251.909C128.04 252.701 127.413 253.436 126.957 254.342L126.273 255.586C125.987 256.039 125.816 256.435 125.759 256.548C125.474 257.283 125.132 258.019 125.246 258.358C125.645 258.358 125.93 258.302 126.387 258.302H127.356L129.409 258.471C132.147 258.698 134.884 259.15 137.622 259.773C142.982 261.074 148.514 263.054 152.963 267.467C155.301 269.956 156.327 272.332 157.639 274.708C158.837 277.14 159.863 279.573 160.719 282.006C162.544 286.871 163.912 291.68 165.509 296.262C165.851 297.054 166.307 298.355 166.821 299.543C167.277 300.731 167.562 301.693 167.562 301.693C173.778 315.667 183.131 328.339 194.936 338.07C194.936 338.07 197.56 340.332 202.35 343.557C207.084 346.669 214.27 350.798 222.824 353.231C231.264 355.664 241.701 354.872 251.453 352.439C261.205 349.837 270.501 345.763 278.086 341.407C293.37 332.752 301.81 323.757 300.27 326.472C299.358 327.66 296.107 331.96 287.838 338.409C283.732 341.634 278.314 345.311 271.242 349.101C264.171 352.778 255.445 356.739 244.324 358.832H245.522C238.906 360.02 232.69 360.19 226.987 359.511C221.17 358.888 216.152 356.852 211.703 354.928C202.692 350.855 195.393 345.707 188.834 339.371C187.408 338.805 183.416 335.015 179.595 330.602C175.774 326.133 172.353 320.928 170.528 318.382L170.813 318.891C166.65 311.989 162.943 304.522 159.977 296.884C157.069 289.247 154.73 281.779 151.48 275.33C151.651 275.839 151.651 276.179 153.077 279.234C152.05 276.914 150.624 274.029 149.199 272.162C147.716 270.295 145.435 268.881 143.267 267.806C138.819 265.769 134.998 265.147 134.599 265.317C132.546 264.864 130.379 264.581 128.155 264.355C126.558 264.072 120.969 264.185 116.806 264.525C117.376 262.375 118.174 259.603 119.087 257.397L120.456 253.946C120.912 253.04 121.311 252.418 121.71 251.683C123.421 248.797 125.588 246.082 128.041 243.819C132.888 239.123 138.99 235.899 145.149 234.145C151.309 232.448 157.582 232.504 162.886 233.862C168.132 235.163 172.296 237.483 175.375 239.576L174.406 238.841C178.626 241.669 181.078 243.819 183.645 245.969C186.154 248.175 188.72 250.551 192.37 254.624C192.826 255.02 193.397 255.53 193.34 255.416C196.818 259.433 201.837 265.204 207.255 270.125C212.673 275.104 218.319 279.347 221.683 281.893H222.311C227.9 285.796 233.945 289.7 239.876 292.415C237.652 291.567 235.428 290.322 233.146 289.021C234.116 289.983 237.481 292.189 242.499 293.49C245.009 294.112 247.974 294.565 250.997 294.282C254.019 293.999 256.757 292.811 257.84 290.096C258.867 287.606 258.125 284.495 256.586 281.61C255.046 278.725 252.708 275.952 250.255 273.407C245.237 268.259 239.077 264.129 232.804 260.225C227.158 255.926 237.595 264.298 228.983 258.075C228.413 258.302 232.918 261.13 230.409 259.886C226.132 256.831 222.596 254.285 219.174 251.06C215.809 247.836 212.388 243.819 209.935 237.596L209.365 237.257C203.434 220.85 204.974 204.953 208.567 194.318C211.133 186.284 212.045 183.569 213.072 180.401C213.984 177.572 215.011 174.574 219.117 166.597L221.569 160.091C224.649 153.133 224.478 155.396 227.5 147.589C227.101 147.985 231.15 137.688 229.097 142.101C235.256 124.224 241.53 106.007 242.727 80.3233C242.898 79.0222 243.07 77.721 243.241 76.3632C243.298 75.6278 243.412 74.8924 243.469 74.1003L243.583 72.9123C243.583 72.9123 243.469 71.7808 244.039 72.1769C245.693 72.7426 247.404 73.3649 249.115 73.9872C249.97 74.3266 250.769 74.5529 251.681 75.0055L253.734 75.9672C258.011 78.1736 261.376 81.2851 262.745 82.9823C263.144 83.0954 267.82 88.0738 270.159 92.2037C272.497 96.3335 273.866 98.7661 270.501 91.9774C269.874 90.7893 268.619 88.9224 268.562 89.0921L267.82 87.395C277.516 99.6713 279.283 113.305 278.428 127.788C278.656 123.432 278.428 117.548 278.257 121.452C278.314 126.034 277.972 130.56 277.344 135.029L278.029 132.257C277.344 138.989 275.919 145.608 274.208 152.058L274.55 149.286C272.269 158.79 271.756 162.184 268.106 172.424C266.395 177.006 270.273 163.599 267.193 173.216C265.482 179.382 263.429 187.076 262.175 195.28C261.547 199.353 261.148 203.539 261.091 207.669C261.091 208.687 261.091 209.706 261.091 210.78V211.346C261.205 211.686 261.262 211.969 261.319 212.251C261.148 212.591 261.034 212.93 261.091 213.496C261.148 213.779 261.547 213.043 261.889 212.704V212.025C262.232 211.686 262.232 211.799 262.802 211.007C263.6 209.875 264.228 208.97 264.684 208.291C265.596 206.877 265.996 206.141 266.338 205.463C267.079 204.048 267.763 202.634 272.896 195.619L271.813 196.75L275.063 193.413C284.644 181.023 279.283 186.058 290.062 172.367C286.07 177.968 288.864 175.479 293.598 168.464L292.058 169.991C294.796 166.201 295.822 165.013 297.533 162.411C295.765 164.56 296.278 163.316 300.27 157.715L297.248 161.223L305.232 150.926C310.707 142.497 320.231 129.711 322.17 126.034C322.17 126.034 325.249 121.565 328.671 116.643C330.439 114.211 332.264 111.608 333.861 109.402C335.002 107.874 336.484 105.725 337.511 104.423C338.024 103.745 338.537 103.179 338.994 102.557C339.222 102.274 339.393 102.047 339.621 101.821C339.849 101.991 340.02 102.274 340.191 102.5C339.564 101.368 339.336 102.33 339.222 102.274C339.108 102.33 339.222 102.16 339.45 101.821L339.621 101.538C339.621 101.538 339.792 101.708 339.906 101.764C340.134 101.991 340.305 102.217 340.59 102.443C341.104 103.009 341.674 103.631 342.244 104.254C344.64 106.63 347.092 110.024 345.324 107.195C345.666 107.761 346.065 108.327 346.522 109.006C346.75 109.402 347.092 109.798 347.32 110.307C347.833 111.269 348.461 112.344 349.031 113.532C350.114 115.964 351.255 118.736 351.996 121.678C353.65 127.505 354.106 133.672 354.221 137.179V135.878C354.677 148.89 350.742 159.752 346.008 168.973C341.161 178.308 335.173 186.398 328.671 195.393C328.956 194.374 321.999 203.709 323.31 201.05C316.068 209.819 310.137 218.192 305.916 225.433C301.639 232.674 299.13 238.614 296.963 242.065C296.563 243.14 296.05 244.555 295.936 245.007C295.822 245.46 295.651 245.912 295.594 246.308C295.423 247.1 295.366 247.666 295.366 248.062C295.366 248.232 295.252 248.571 295.423 248.515L296.107 248.062C296.506 247.779 296.906 247.553 297.362 247.213L296.62 247.496C312.076 239.293 316.524 236.974 327.987 230.864C334.431 227.639 335.8 227.752 347.092 221.529C343.271 223.227 347.947 220.794 352.225 218.531C349.487 219.945 348.575 220.285 354.049 217.117C354.905 216.777 356.103 216.155 357.3 215.646C357.3 215.646 357.528 215.476 357.414 215.476C364.6 211.799 363.402 212.534 360.095 214.345C360.266 214.345 360.038 214.514 359.068 215.137C366.254 210.837 379.656 204.161 380.34 203.2C385.701 200.428 390.72 197.825 395.453 195.336C397.221 194.431 398.989 193.526 400.757 192.621L403.323 191.376C403.893 190.867 403.722 191.829 403.836 192.168L404.008 193.582C404.179 195.506 404.464 197.373 404.578 199.183V201.559C404.635 202.181 404.635 202.86 404.578 203.483C404.179 213.722 400.871 223.113 395.396 231.826C394.312 233.919 397.449 230.128 399.958 224.584C397.962 229.11 395.339 233.296 392.259 237.143C392.773 237.37 397.563 230.411 399.445 226.225C395.966 234.371 389.978 241.726 382.222 247.327C374.409 253.04 364.714 255.982 355.133 258.698L351.027 259.433L349.886 259.773C349.886 259.773 345.552 260.508 342.758 261.413C340.305 262.771 342.986 261.753 334.317 265.656C331.066 267.467 326.504 270.239 322.797 274.255C321.885 275.217 321.029 276.292 320.288 277.423C319.889 277.989 319.603 278.555 319.204 279.121C318.862 279.686 318.862 279.799 318.634 280.139C318.349 280.761 318.064 281.44 317.893 282.119C317.779 282.345 317.893 282.402 318.064 282.345H318.577H319.546C318.178 282.458 317.436 282.628 317.493 282.571C317.265 282.798 317.836 282.741 318.52 282.798C319.261 282.741 319.946 282.685 320.573 282.628C321.542 282.515 322.398 282.458 323.253 282.345C325.078 282.175 326.732 282.006 328.614 281.949L329.07 281.44C327.131 282.006 342.016 281.101 343.898 281.157C346.693 280.648 336.199 281.327 334.944 281.157C354.791 279.913 344.868 280.535 364.714 279.347C375.322 279.007 362.832 279.913 367.908 279.969C372.584 279.743 377.204 279.517 381.994 279.29C384.617 279.121 387.241 279.007 389.921 278.838C390.606 278.838 391.575 278.611 392.088 278.838L392.259 281.157C392.259 282.685 392.316 284.495 392.088 285.796C392.202 284.721 392.031 283.194 391.974 282.006C391.632 291.736 386.785 297.394 382.45 301.976C377.945 306.502 373.154 309.613 368.022 312.555C360.779 316.459 353.365 318.439 346.921 318.382C340.419 318.495 334.887 317.873 330.04 317.42C320.288 316.515 313.387 317.59 309.053 318.948C306.886 319.514 305.118 320.532 304.262 321.041C303.293 321.55 302.723 321.776 302.495 321.776C302.095 321.776 303.065 320.871 304.947 319.344C309.908 315.836 319.09 314.139 327.188 314.139C331.295 314.139 334.659 314.422 337.226 314.422C339.735 314.422 341.332 314.479 341.332 314.479C347.605 314.479 353.08 313.856 357.87 311.933C362.604 310.066 367.737 307.237 371.786 304.691C375.949 301.976 379.542 298.808 382.393 295.244C383.762 293.433 384.96 291.567 385.815 289.587C386.214 288.568 386.613 287.606 386.842 286.532C387.013 286.022 387.07 285.513 387.184 285.004L387.355 284.042C387.355 284.042 387.412 283.816 387.298 283.76C384.789 283.873 382.222 283.986 379.656 284.156C374.181 284.438 368.535 284.721 362.547 285.004C350.571 285.683 337.454 286.362 322.113 287.21L321.885 287.324Z" fill="#FF9916"/>
</svg>
