<svg xmlns="http://www.w3.org/2000/svg" width="30" height="48" fill="none" viewBox="0 0 30 48"><path fill="#FF9916" d="M24.227 11.429h4.614a1.15 1.15 0 0 0 1.154-1.143V1.143A1.15 1.15 0 0 0 28.841 0H21.92C14.923 0 9.23 5.64 9.23 12.571v5.806H1.154A1.15 1.15 0 0 0 0 19.52v9.051c0 .63.518 1.143 1.154 1.143h7.273v17.143c0 .63.518 1.143 1.154 1.143h9.632a1.15 1.15 0 0 0 1.154-1.143V29.714h6.068c.525 0 .987-.348 1.12-.857l2.406-9.143a1.12 1.12 0 0 0-.203-.989 1.16 1.16 0 0 0-.91-.446h-8.075V14.85c0-1.89 1.552-3.428 3.46-3.428zm-4.615 9.142h7.735l-1.804 6.858h-6.334a1.15 1.15 0 0 0-1.154 1.142v17.143H10.73V28.571a1.15 1.15 0 0 0-1.153-1.142H2.303v-6.766h8.076a1.15 1.15 0 0 0 1.154-1.143v-6.949c0-5.67 4.655-10.285 10.383-10.285h5.768v6.857h-3.461c-3.18 0-5.768 2.565-5.768 5.714v4.572c0 .63.518 1.142 1.153 1.142z"/></svg>
