<svg xmlns="http://www.w3.org/2000/svg" width="60" height="62" fill="none" viewBox="0 0 60 62"><path stroke="#F2E9DE" stroke-miterlimit="10" stroke-width="1.5" d="M28.726 1.125c1.236.699 5.483 3.516 5.483 8.588 0 4.508-7.236 17.942-4.427 21.436L47.76 8.7s4.472 5.454 1.775 10.053c-2.786 4.801-9.662 10.414-12.404 14.584-1.707 2.592-.876 3.967-.876 3.967l21.774-11.97s1.753 5.208-2.404 8.95c-4.382 3.944-14.674 5.522-14.674 9.624h14.944s-1.528 4.553-4.427 5.185c-2.54.563-8-.925-10.561 1.397-2.72 2.457-5.776 10.504-14.876 10.504-6.135 0-10.876-4.418-13.82-10.256C8.794 44.02 4.974 40.774 1.042 39.94c0 0 2.135-5.094 7.797-5.094 7.775 0 11.101 12.758 16.944 12.758 1.685 0 3.482-.88 3.482-3.381 0-2.705-3.887-4.96-4.988-5.703-2.584-1.803-4.652-4.666-3.303-9.467z"/></svg>
