<svg xmlns="http://www.w3.org/2000/svg" width="91" height="97" fill="none" viewBox="0 0 91 97"><path fill="#F2E9DE" d="M50.568 96.757c-.273 0-.547-.091-.774-.296-.274-.228-.502-.501-.753-.775-.866-.98-1.39-1.572-2.872-.547h-.045l-.046.046c-.501.228-.912.091-1.185 0-.228-.069-.25-.091-.342 0-.638.66-1.208.934-1.778.843-.843-.137-1.23-1.003-1.573-1.755-.114-.273-.319-.706-.455-.843-.046.023-.137.091-.297.251-.136.16-.296.319-.478.456-1.094.934-1.847 1.276-2.622.41-.205-.228-.319-.365-.866-.25A1.59 1.59 0 0 1 35.297 94q-.48-.41-.684-.684c-.045.069-.114.114-.16.183-.296.342-.706.82-1.299.797-.296 0-.57-.114-.82-.364v.045c0 .069 0 .114-.023.16-.114.615-.25 1.207-.798 1.253-.524.023-.683-.456-.82-.843-.228-.706-.365-.889-.456-.912-1.755-.273-3.556-.934-5.448-1.663-2.575-.98-5.265-2.005-8.16-2.096-.547-.023-1.094-.092-1.709-.16-2.918-.296-6.245-.66-7.476 1.732a3.27 3.27 0 0 1-1.322 1.344c-.798.41-1.55.388-2.052-.09-.296-.297-.478-.365-.524-.388-.09.068-.228.364-.296.524-.023.068-.068.114-.091.182a.92.92 0 0 1-.89.502.88.88 0 0 1-.774-.616c-.069-.182-.091-.387-.114-.615a3.24 3.24 0 0 1 .41-1.686c1.505-2.734.41-3.76-.66-4.763-.593-.57-1.232-1.139-1.118-1.982.137-.98 1.3-1.96 4.149-3.418.364-.182.638-.478.775-.82.775-1.914-.069-4.808-.82-7.337-.776-2.643-1.391-4.717-.32-5.788.638-.66 1.732-.73 3.419-.25.524.136 1.026.341 1.595.615.046 0 .092.045.114.045.616.25.89.069 1.345-.228.342-.228.752-.478 1.3-.524.068 0 .136-.045.182-.09.045-.07.023-.115.023-.138-.228-.82 0-1.367.706-1.617h.046a2.2 2.2 0 0 1 1.162 0c.091 0 .205.045.25.045.024-.023.115-.136.252-.478v-.046c.387-.729 1.162-.547 1.55-.456.022 0 .068 0 .114.023a.65.65 0 0 1 .433-.387c.364-.114.729.091 1.07.57.183.25.229.592.138.888-.046.137-.069.25-.091.32.205-.07.57-.274.752-.57.136-.251.068-.388-.023-.502-.616-.729-.82-1.663-.547-2.53.137-.455.25-1.002.364-1.548.365-1.71.753-3.646 2.485-3.829.228-.022.387-.068.501-.136.479-.251.502-.388.57-.593.183-.729.547-1.116 2.166-1.48a2.13 2.13 0 0 0 1.23-.776c-.41-.045-.98-.16-1.322-.706-.456-.73-.296-1.914.502-3.805.273-.684.957-.593 1.254-.57h.205c.296-.501 1.253-1.595 3.943-1.185 1.162.16 1.732-.706 2.484-2.073.479-.866.935-1.71 1.755-1.8.525-.069 1.049.205 1.596.797.045.046.114.023.16 0 1.048-.752 1.868.205 2.302.73.5.592.638.683.797.592.183-.091.388-.205.593-.274 1.504-.501 2.234-.57 2.735-.205.456.342.433.889.433 1.071 0 .433.182.843.547 1.094.365.273.843.342 1.3.205 3.213-1.117 4.832-.706 7.134 1.891.592.661.843 1.595.638 2.484-.228 1.003.023 1.367.319 1.846.638.957.98 1.845-.502 4.42-.045.068-.045.365 1.414 1.367.136.091.296.16.456.228l.136.046a.7.7 0 0 1 .41.433c.114.341-.09.638-.25.888-.069.114-.228.365-.228.456 0 0 .023.046.114.091q.616.24.957.889c.57 1.116 1.39 2.05 2.393 2.689.958.592 1.368 1.116 1.528 1.936.16.752.729 1.322 1.458 1.413.593.069 1.186.25 1.87.57.706.319 1.116 1.093.98 1.823-.046.25.57.592.98.82.615.342 1.23.706 1.276 1.344.023.388-.182.752-.593 1.071-.638.502-1.094 1.049-1.344 1.64-.89 2.029-2.713 1.482-4.058 1.095-1.436-.41-2.347-.638-3.031.296-.091.137-.16.273-.182.387-.092.501.911 1.481 1.253 1.8h.023c.342.365.479.866.32 1.322-.16.547-.206.797-.229.911.479.342.798.866.82 2.347 0 .41.092.775.206 1.14.479 1.299.547 2.05.228 2.575-.342.57-.98.638-1.527.729-.342.045-.707.09-1.049.228q-.65.273-1.436.136c-.592-.09-.752.137-1.208.889-.25.433-.547.934-1.048 1.344-1.254 1.026-1.049 2.142-.82 3.555.09.57.204 1.14.181 1.732 0 .455-.273.865-.706 1.07-.16.069-.32.115-.479.115zm-3.054-3.327c1.117 0 1.846.82 2.439 1.481.205.251.41.479.615.661 0-.456-.09-.957-.182-1.504-.25-1.435-.547-3.212 1.208-4.648.32-.296.57-.684.798-1.048.456-.752 1.003-1.686 2.416-1.459.296.046.57.023.798-.068.478-.205.957-.273 1.344-.319.206-.023.639-.091.684-.16 0-.022.137-.296-.319-1.549a4.9 4.9 0 0 1-.296-1.526c-.023-1.185-.228-1.322-.342-1.413-.615-.433-.593-.957-.205-2.21 0-.046 0-.069-.023-.092h-.023c-.66-.683-1.778-1.777-1.573-2.893.069-.388.274-.73.388-.89 1.208-1.64 2.917-1.139 4.308-.728 1.573.455 2.21.547 2.644-.433.342-.775.912-1.481 1.71-2.097l.068-.068c-.137-.114-.41-.273-.616-.387-.706-.41-1.777-1.003-1.55-2.097.046-.205-.09-.41-.296-.5-.593-.274-1.048-.411-1.527-.48-1.208-.159-2.21-1.093-2.462-2.346-.09-.433-.205-.684-1.003-1.185-1.185-.752-2.142-1.846-2.803-3.168-.114-.227-.228-.296-.32-.319h-.045l-.045-.045c-.388-.228-.639-.524-.73-.866-.114-.456.069-.866.274-1.185a2 2 0 0 1-.297-.182c-.866-.593-2.507-1.686-1.777-2.94 1.23-2.142.934-2.574.547-3.19-.342-.524-.821-1.253-.502-2.734.114-.524-.023-1.07-.364-1.436-2.12-2.37-3.283-2.46-5.881-1.572a2.6 2.6 0 0 1-2.37-.364 2.46 2.46 0 0 1-1.026-2.097v-.09c-.16 0-.57.022-1.596.387a2.6 2.6 0 0 0-.456.205c-1.048.524-1.778-.365-2.233-.889-.547-.638-.593-.593-.707-.524-.547.387-1.276.319-1.71-.16-.319-.341-.524-.432-.592-.432-.205.022-.593.729-.866 1.207-.684 1.253-1.619 2.962-3.67 2.666h-.023c-1.025-.16-2.347-.091-2.735.593-.342.706-1.071.615-1.39.57h-.091c-.775 1.913-.593 2.46-.525 2.574.069.114.297.137.593.16.319.022.775.068 1.003.455.228.41 0 .843-.091.98-.433.843-1.254 1.436-2.211 1.64-1.163.251-1.208.434-1.254.616-.114.433-.296.889-1.162 1.344-.251.137-.547.205-.912.25-.82.092-1.094 1.209-1.459 2.895-.114.57-.228 1.14-.41 1.663-.137.456 0 .98.319 1.39.547.638.524 1.481-.068 2.188-.547.66-1.573 1.116-2.234.729-.25-.137-.593-.479-.479-1.23-.273.045-.547 0-.775-.07-.068 0-.16-.045-.228-.045-.501 1.162-1.162 1.117-1.777 1.003-.206-.046-.365-.091-.57-.046 0 .046 0 .091.045.183.046.205.069.433 0 .638-.16.615-.684 1.048-1.276 1.07-.25 0-.456.16-.73.342-.524.342-1.253.82-2.438.32-.046 0-.114-.046-.16-.069-.501-.228-.957-.41-1.413-.547-1.55-.433-2.074-.228-2.234-.045-.57.57.068 2.734.616 4.625.797 2.734 1.709 5.81.774 8.112-.25.615-.729 1.117-1.344 1.436-2.963 1.526-3.488 2.233-3.533 2.529-.023.228.342.57.752.957 1.071 1.003 2.85 2.643.889 6.198-.046.09-.114.205-.137.296a1.13 1.13 0 0 1 .638-.365c.639-.114 1.186.342 1.55.707.091.09.388.045.684-.114.342-.183.638-.479.82-.843 1.619-3.1 5.699-2.666 8.662-2.37.593.068 1.14.114 1.641.16 3.077.09 5.972 1.207 8.525 2.164 1.846.706 3.578 1.367 5.22 1.595h.045c.387.091.66.342.866.638a.95.95 0 0 1 .524-.547.94.94 0 0 1 .775.046q.137.068.274.205s.25.273.296.273c.091-.045.274-.25.388-.387.273-.319.615-.73 1.14-.684.318 0 .615.206.865.547 0 0 .114.205.502.502a.4.4 0 0 0 .228.068c1.185-.228 1.686.319 1.96.615l.091.091c.091-.022.342-.16.89-.615.136-.114.25-.228.364-.342.16-.182.684-.752 1.344-.66.707.114 1.049.82 1.368 1.526.16.365.479 1.026.684 1.071.091 0 .342-.091.752-.524l.068-.068c.616-.456 1.14-.296 1.46-.183.182.069.227.069.295.046.753-.524 1.39-.73 1.938-.73z"/><path fill="#FF9916" d="M36.938 42.504c-.296 0-.57-.046-.866-.114a3.174 3.174 0 0 1-2.188-3.92L44.209 2.31a3.175 3.175 0 0 1 6.109 1.732L39.992 40.202c-.387 1.39-1.663 2.302-3.054 2.302M48.79 45.283a3.27 3.27 0 0 1-1.982-.683 3.155 3.155 0 0 1-.502-4.444l23.5-29.508a3.16 3.16 0 0 1 4.445-.501 3.155 3.155 0 0 1 .5 4.443L51.253 44.098a3.18 3.18 0 0 1-2.484 1.185zM56.38 54.079a3.19 3.19 0 0 1-2.78-1.64c-.843-1.528-.297-3.464 1.23-4.307l30.977-17.136c1.527-.843 3.464-.296 4.307 1.23.844 1.528.297 3.464-1.23 4.307L57.908 53.67a3.05 3.05 0 0 1-1.527.387z"/><path fill="#FF9916" d="M39.787 82.129c-4.627 0-8.912-1.55-12.81-4.603-3.35-2.643-6.222-6.266-8.524-10.8-1.892-3.715-3.943-6.7-6.086-8.819-2.12-2.096-4.353-3.418-6.678-3.896a3.193 3.193 0 0 1-2.462-3.76 3.194 3.194 0 0 1 3.76-2.461c3.534.73 6.839 2.62 9.847 5.605 2.622 2.598 5.06 6.13 7.272 10.436C29.37 74.2 36.186 75.75 39.764 75.75c7.659 0 11.465-5.173 14.542-9.32 1.14-1.55 2.12-2.87 3.237-3.873 1.322-1.208 4.126-2.758 14.086-4.284 5.197-.798 9.87-1.185 10.075-1.208 1.732-.137 3.282 1.14 3.419 2.894.136 1.754-1.14 3.281-2.895 3.418-.046 0-4.627.387-9.55 1.14-9.186 1.389-10.804 2.688-10.873 2.733-.638.57-1.481 1.71-2.37 2.917-1.71 2.324-3.852 5.218-6.906 7.588-3.693 2.87-7.978 4.33-12.742 4.33z"/></svg>
