<svg xmlns="http://www.w3.org/2000/svg" width="67" height="54" fill="none" viewBox="0 0 67 54"><path fill="currentColor" d="M63.05 25.958c-.577-.249-1.154-.453-1.754-.52-1.016-.136-1.801-.906-2.009-1.903-.138-.679-.438-1.041-1.316-1.585a7.37 7.37 0 0 1-2.678-2.944c-.138-.294-.346-.52-.692-.634-1.224-.68.392-1.72 0-1.88-.254-.113-.508-.18-.716-.339-.808-.543-2.1-1.404-1.639-2.174 2.493-4.257-.554-3.125.115-6.182a2.19 2.19 0 0 0-.53-1.993c-2.31-2.536-3.787-2.762-6.719-1.743-1.316.453-2.747-.521-2.7-1.903 0-.702-.278-1.019-2.448-.294-.185.068-.37.159-.554.25-1.316.633-1.87-2.265-3.094-1.405-.3.204-.715.181-.97-.09C32.9-1.963 33.155 4.4 29.715 3.925c-.139 0-2.724-.453-3.486.906-.3.656-1.247-.091-1.455.452-2.355 5.526 1.801 2.831.97 4.37-.37.703-1.062 1.178-1.87 1.36-2.77.588-.947 1.177-2.655 2.038-.23.113-.485.158-.739.204-1.8.203-1.8 3.102-2.424 5.05-.23.701 0 1.426.462 1.992 1.27 1.472-2.586 3.329-1.686.951.047-.113 0-.249-.046-.34-.184-.249-.508-.566-.53-.158-.162.702-1.363-.317-1.686.317-.6 1.517-1.108.52-2.147.793-.508.18-.439.52-.323.905.138.499-.254.951-.762.997-1.062.068-1.5 1.336-3.001.724-.046 0-.093-.045-.139-.067a13 13 0 0 0-1.547-.59c-7.572-2.105.485 8.108-1.592 13.203-.208.498-.6.906-1.086 1.155-9.557 4.846 1.64 3.215-2.193 10.031-.23.43-.37.906-.346 1.382 0 .158.023.317.07.453.092.271.461.271.6.022.369-.702.669-1.675 1.916-.475.369.34.923.249 1.408 0a2.6 2.6 0 0 0 1.108-1.11c1.778-3.329 6.88-2.106 10.043-1.925 5.333.181 9.95 3.193 14.128 3.805 1.085.226.97 3.125 1.409.996.092-.476.161-1.245.785-.838 1.316 1.676 1.8-1.562 2.7-.294.116.203.416.453.647.634a.9.9 0 0 0 .716.18c2.054-.361 1.016 1.88 3.324-.022.162-.136.3-.272.439-.407 2.032-2.242 1.57 4.257 4.294 1.449.692-.52 1.062.226 1.731-.09 2.47-1.699 3.256.316 4.48 1.358.392.34.992.068.992-.43 0-1.948-1.293-4.054.854-5.775 1.178-.996 1.2-2.672 2.817-2.4.392.068.785.045 1.154-.113 1.57-.634 3.278.34 2.078-2.808a3.8 3.8 0 0 1-.254-1.359c-.07-3.034-1.408-.883-.6-3.487.069-.25 0-.521-.185-.702-.554-.544-1.64-1.563-1.478-2.4.046-.25.185-.476.3-.657 2.009-2.672 5.864 1.789 7.226-1.291.347-.747.9-1.381 1.57-1.88 1.57-1.2-2.24-1.494-1.939-2.92.092-.499-.185-.974-.646-1.178z"/></svg>
