<svg xmlns="http://www.w3.org/2000/svg" width="78" height="43" fill="none" viewBox="0 0 78 43"><path fill="#FF9916" d="M77.192 37.306a2.76 2.76 0 0 0-1.974-.834l-12.764.068a24.2 24.2 0 0 0-2.423-6.29l11.71-6.965c1.301-.766 1.75-2.48.987-3.81a2.7 2.7 0 0 0-1.682-1.284 2.71 2.71 0 0 0-2.132.293L56.756 25.72a24.7 24.7 0 0 0-4.6-3.922l7.135-12.94c.74-1.33.269-3.02-1.077-3.786a2.7 2.7 0 0 0-2.086-.27 2.77 2.77 0 0 0-1.683 1.33l-7.268 13.164a22.2 22.2 0 0 0-5.205-1.24l-.067-15.283A2.783 2.783 0 0 0 39.123 0h-.022c-.718 0-1.391.293-1.907.789-.538.518-.83 1.262-.83 2.006l.067 15.216c-1.929.203-3.768.676-5.518 1.307L23.24 6.312c-.763-1.308-2.468-1.759-3.657-1.037l-.202.112a2.66 2.66 0 0 0-1.211 1.646 2.75 2.75 0 0 0 .291 2.141L25.91 21.82a25 25 0 0 0-4.599 3.945l-12.427-6.92a2.794 2.794 0 0 0-3.724.992l-.045.09a2.83 2.83 0 0 0-.27 2.096c.202.721.674 1.33 1.347 1.69l11.822 6.583a24.3 24.3 0 0 0-2.378 6.199l-12.81.067C1.257 36.585 0 37.847 0 39.38c0 .744.27 1.443.808 1.961a2.76 2.76 0 0 0 1.974.834l14.514-.068h37.06c.111 0 .246.068.358.068l20.46-.09c1.502 0 2.758-1.262 2.758-2.795 0-.744-.269-1.443-.807-1.961z"/></svg>
