<svg xmlns="http://www.w3.org/2000/svg" width="45" height="40" fill="none" viewBox="0 0 45 40"><path fill="currentColor" fill-rule="evenodd" d="m3.416 15.586 8.208 5.348L38.842 3.816zm18.837 14.748-1.569 5.293 4.005-3.706zm-3.818 5.5L12.92 22.569 38.008 6.791l-17.19 21.27a1 1 0 0 0-.185.352l-2.2 7.422zm8.046-2.745-7.09 6.56c-.118.133-.27.233-.439.292a1.08 1.08 0 0 1-1.012-.168 1.03 1.03 0 0 1-.316-.417l-6.864-16.51L.49 16.153a1.04 1.04 0 0 1-.388-.428 1.01 1.01 0 0 1 .133-1.091c.125-.151.291-.265.48-.327L43.611.055a1.07 1.07 0 0 1 1.045.213c.139.123.241.281.296.457.056.175.062.362.018.54l-8.914 36.323a1.04 1.04 0 0 1-.828.837 1.07 1.07 0 0 1-.79-.151l-7.958-5.187zM41.793 5.42l-7.44 30.32-11.179-7.281z" clip-rule="evenodd"/></svg>
