<svg width="30" height="48" viewBox="0 0 30 48" fill="none" xmlns="http://www.w3.org/2000/svg">
<path d="M24.2268 11.4286H28.8414C29.4768 11.4286 29.995 10.9152 29.995 10.2857V1.14286C29.995 0.513371 29.4768 0 28.8414 0H21.9194C14.9231 0 9.22924 5.64063 9.22924 12.5714V18.3771H1.15365C0.518222 18.3771 0 18.8905 0 19.52V28.5714C0 29.2009 0.518245 29.7143 1.15365 29.7143H8.42687V46.8571C8.42687 47.4866 8.94512 48 9.58053 48H19.213C19.8484 48 20.3666 47.4866 20.3666 46.8571V29.7143H26.4349C26.9599 29.7143 27.4217 29.3661 27.5547 28.8571L29.9612 19.7143C30.0536 19.3705 29.9792 19.0067 29.7584 18.7254C29.5398 18.4464 29.2041 18.279 28.8481 18.279H20.7725V14.8504C20.7725 12.9598 22.325 11.4219 24.2335 11.4219L24.2268 11.4286ZM19.6121 20.5714H27.3474L25.5426 27.4286H19.209C18.5736 27.4286 18.0553 27.942 18.0553 28.5714V45.7143H10.7302V28.5714C10.7302 27.9419 10.212 27.4286 9.57655 27.4286H2.30333V20.6629H10.3789C11.0143 20.6629 11.5326 20.1495 11.5326 19.52V12.5714C11.5326 6.90177 16.1877 2.28571 21.9155 2.28571H27.6837V9.14286H24.2228C21.0435 9.14286 18.4545 11.7076 18.4545 14.8571V19.4286C18.4545 20.0581 18.9727 20.5714 19.6082 20.5714H19.6121Z" fill="#FF9916"/>
</svg>
