<svg width="43" height="43" viewBox="0 0 43 43" fill="none" xmlns="http://www.w3.org/2000/svg">
<path d="M32.25 10.25H32.27M11.25 1.25H31.25C36.7728 1.25 41.25 5.72715 41.25 11.25V31.25C41.25 36.7728 36.7728 41.25 31.25 41.25H11.25C5.72715 41.25 1.25 36.7728 1.25 31.25V11.25C1.25 5.72715 5.72715 1.25 11.25 1.25ZM29.25 19.99C29.4968 21.6545 29.2125 23.3544 28.4375 24.848C27.6625 26.3416 26.4363 27.5528 24.9333 28.3093C23.4302 29.0659 21.7269 29.3292 20.0656 29.0619C18.4043 28.7945 16.8695 28.0102 15.6797 26.8203C14.4898 25.6305 13.7055 24.0957 13.4381 22.4344C13.1708 20.7731 13.4341 19.0698 14.1907 17.5667C14.9472 16.0637 16.1584 14.8375 17.652 14.0625C19.1456 13.2875 20.8455 13.0032 22.51 13.25C24.2078 13.5018 25.7797 14.2929 26.9934 15.5066C28.2071 16.7203 28.9982 18.2922 29.25 19.99Z" stroke="#FF9916" stroke-width="2.5" stroke-linecap="round" stroke-linejoin="round"/>
</svg>
