<svg width="48" height="44" viewBox="0 0 48 44" fill="none" xmlns="http://www.w3.org/2000/svg">
<path fill-rule="evenodd" clip-rule="evenodd" d="M3.64365 17.1443L12.3993 23.0274L41.4314 4.19719L3.64365 17.1443ZM23.7361 33.3669L22.0633 39.1897L26.3349 35.1133L23.7361 33.3669ZM19.6634 39.4179L13.7808 24.825L40.5416 7.47002L22.2062 30.868C22.1161 30.9824 22.0491 31.1135 22.0089 31.2539L19.6618 39.4184L19.6634 39.4179ZM28.2467 36.3975L20.6844 43.6148C20.5578 43.7601 20.3966 43.8702 20.2159 43.9348C20.0353 43.9994 19.8413 44.0164 19.6523 43.984C19.4633 43.9516 19.2857 43.8711 19.1363 43.7499C18.9869 43.6288 18.8707 43.4711 18.7987 43.2919L11.477 25.1296L0.522061 17.7691C0.343015 17.6546 0.199724 17.4914 0.108742 17.2982C0.0177613 17.105 -0.017197 16.8898 0.00790648 16.6775C0.03301 16.4651 0.117151 16.2642 0.250608 16.0981C0.384065 15.9319 0.561392 15.8073 0.762102 15.7385L46.5197 0.0600001C46.7092 -0.00493731 46.9126 -0.0174305 47.1086 0.0238203C47.3046 0.065071 47.486 0.158558 47.634 0.294555C47.782 0.430551 47.8912 0.604086 47.9502 0.797103C48.0092 0.990119 48.0159 1.19556 47.9695 1.39206L38.4607 41.3468C38.4347 41.5021 38.3765 41.6501 38.29 41.7812C38.2089 41.9055 38.1042 42.0125 37.982 42.0959C37.8598 42.1793 37.7225 42.2375 37.5779 42.2673C37.4333 42.297 37.2843 42.2976 37.1395 42.269C36.9947 42.2404 36.8569 42.1833 36.734 42.1009L28.2467 36.3959V36.3975ZM44.5791 5.96304L36.6423 39.3151L24.7192 31.3055L44.5791 5.96304Z" fill="#FF9916"/>
</svg>
